<svg width="17" height="21" viewBox="0 0 17 21" fill="none" xmlns="http://www.w3.org/2000/svg">
<path d="M5.29734 19.314C4.88062 19.3325 4.46016 19.2845 4.04536 19.1733C1.81062 18.5745 0.485547 16.2794 1.08434 14.0447C1.68314 11.8099 3.97824 10.4849 6.21298 11.0837C8.44773 11.6825 9.7728 13.9776 9.174 16.2123C8.68635 18.0323 7.08387 19.2392 5.29734 19.314Z" fill="#FFCE54"/>
<path d="M10.6767 2.52818C11.0503 1.13377 12.4883 0.304118 13.8821 0.677579C14.3981 0.815838 14.8484 1.09636 15.1847 1.49019C15.7525 2.14817 15.9577 3.04363 15.7328 3.88295C15.3592 5.27723 13.9213 6.10705 12.5274 5.73355C11.1336 5.35993 10.3031 3.92246 10.6767 2.52818ZM14.7215 3.61199C14.8568 3.10738 14.7331 2.56935 14.3909 2.17178C14.191 1.93829 13.9217 1.7719 13.6111 1.68869C12.7747 1.46457 11.9121 1.96273 11.688 2.79914C11.4638 3.63556 11.9618 4.49829 12.7982 4.72241C13.6348 4.94643 14.4975 4.44828 14.7215 3.61199Z" fill="#FFCE54"/>
</svg>
