<svg width="16" height="16" viewBox="0 0 16 16" fill="none" xmlns="http://www.w3.org/2000/svg">
<path d="M8.5 0.48584C12.6396 0.48584 16 3.84605 16 7.98575C16 12.1254 12.6396 15.4858 8.5 15.4858C4.36035 15.4858 1 12.1254 1 7.98575C1 3.84605 4.36054 0.48584 8.5 0.48584Z" fill="#65B458"/>
<g opacity="0.3">
<path opacity="0.3" d="M2.18504 8.00007C2.18504 4.23516 5.06273 1.17134 8.73047 0.800685C8.48755 0.776485 8.25319 0.727539 8.00318 0.727539C3.98899 0.727539 0.730469 3.98588 0.730469 8.00007C0.730469 12.0143 3.98899 15.2728 8.00318 15.2728C8.25319 15.2728 8.48755 15.2238 8.73047 15.1996C5.06273 14.8288 2.18504 11.765 2.18504 8.00007Z" fill="white"/>
</g>
<g opacity="0.3">
<path opacity="0.3" d="M13.8716 8.00007C13.8716 11.765 10.9939 14.8288 7.32617 15.1996C7.56909 15.2238 7.80345 15.2728 8.05346 15.2728C12.0677 15.2728 15.326 12.0143 15.326 8.00007C15.326 3.98588 12.0677 0.727539 8.05346 0.727539C7.80345 0.727539 7.56909 0.776485 7.32617 0.800685C10.9939 1.17134 13.8716 4.23516 13.8716 8.00007Z" fill="black"/>
</g>
<g opacity="0.3">
<path opacity="0.3" d="M8.00219 10.1821C9.2072 10.1821 10.1841 9.20524 10.1841 8.00023C10.1841 6.79521 9.2072 5.81836 8.00219 5.81836C6.79717 5.81836 5.82031 6.79521 5.82031 8.00023C5.82031 9.20524 6.79717 10.1821 8.00219 10.1821Z" fill="white"/>
</g>
<path d="M8 15.9996C3.58805 15.9996 0 12.4109 0 7.99981C0 3.58877 3.58805 0 8 0C12.412 0 16 3.58877 16 7.99981C16 12.4109 12.412 15.9996 8 15.9996ZM8 1.45439C4.39067 1.45439 1.45458 4.39048 1.45458 7.99981C1.45458 11.6091 4.39067 14.5452 8 14.5452C11.6093 14.5452 14.5454 11.6091 14.5454 7.99981C14.5454 4.39048 11.6093 1.45439 8 1.45439Z" fill="white"/>
<path d="M8.00073 5.81785C7.59878 5.81785 7.27344 5.49269 7.27344 5.09056V3.63598C7.27344 3.23403 7.59878 2.90869 8.00073 2.90869C8.40268 2.90869 8.72802 3.23403 8.72802 3.63598V5.09056C8.72802 5.49269 8.40268 5.81785 8.00073 5.81785Z" fill="white"/>
<path d="M8.00073 13.0906C7.59878 13.0906 7.27344 12.7653 7.27344 12.3633V10.9089C7.27344 10.507 7.59878 10.1816 8.00073 10.1816C8.40268 10.1816 8.72802 10.507 8.72802 10.9089V12.3633C8.72802 12.7653 8.40268 13.0906 8.00073 13.0906Z" fill="white"/>
<path d="M5.9514 6.67563C5.76544 6.67563 5.57929 6.60467 5.43719 6.46256L4.40457 5.42994C4.12035 5.14572 4.12035 4.68554 4.40457 4.40151C4.68879 4.11747 5.14896 4.11747 5.43282 4.40151L6.46561 5.43412C6.74965 5.71835 6.74965 6.17852 6.46561 6.46256C6.3235 6.60467 6.13736 6.67563 5.9514 6.67563Z" fill="white"/>
<path d="M11.0842 11.8105C10.8982 11.8105 10.7121 11.7394 10.5702 11.5975L9.53738 10.5647C9.25316 10.2806 9.25316 9.82045 9.53738 9.53641C9.8216 9.25219 10.2818 9.25219 10.5658 9.53641L11.5984 10.569C11.8826 10.8532 11.8826 11.3134 11.5984 11.5975C11.4565 11.7396 11.2703 11.8105 11.0842 11.8105Z" fill="white"/>
<path d="M5.09379 8.72704H3.63922C3.23727 8.72704 2.91211 8.4017 2.91211 7.99975C2.91211 7.59781 3.23727 7.27246 3.63922 7.27246H5.09379C5.49574 7.27246 5.8209 7.59781 5.8209 7.99975C5.8209 8.4017 5.49574 8.72704 5.09379 8.72704Z" fill="white"/>
<path d="M12.3655 8.72704H10.9109C10.5089 8.72704 10.1836 8.4017 10.1836 7.99975C10.1836 7.59781 10.5089 7.27246 10.9109 7.27246H12.3655C12.7674 7.27246 13.0926 7.59781 13.0926 7.99975C13.0926 8.4017 12.7674 8.72704 12.3655 8.72704Z" fill="white"/>
<path d="M4.9186 11.8105C4.73264 11.8105 4.5465 11.7394 4.40457 11.5975C4.12035 11.3132 4.12035 10.8531 4.40457 10.569L5.43719 9.53641C5.7214 9.25219 6.18158 9.25219 6.46561 9.53641C6.74965 9.82045 6.74965 10.2806 6.46561 10.5647L5.43282 11.5975C5.29089 11.7396 5.10475 11.8105 4.9186 11.8105Z" fill="white"/>
<path d="M10.0516 6.67563C9.86563 6.67563 9.67949 6.60467 9.53738 6.46256C9.25316 6.17852 9.25316 5.71835 9.53738 5.43412L10.5702 4.40151C10.8542 4.11747 11.3144 4.11747 11.5984 4.40151C11.8824 4.68554 11.8826 5.14572 11.5984 5.42994L10.5658 6.46256C10.4235 6.60467 10.2375 6.67563 10.0516 6.67563Z" fill="white"/>
</svg>
