<svg width="31" height="28" viewBox="0 0 31 28" fill="none" xmlns="http://www.w3.org/2000/svg">
<path d="M8.369 10.8198C8.43112 11.6334 9.16061 12.2861 10.0036 12.2794C10.4644 12.2744 10.8643 12.0764 11.1169 11.7619C11.3275 11.4961 11.4418 11.1644 11.4139 10.7978C11.3595 9.982 10.6294 9.32951 9.78638 9.33628C9.27756 9.3359 8.84487 9.58856 8.5939 9.96587C8.43077 10.201 8.34526 10.4975 8.369 10.8198Z" fill="#E6E9ED"/>
<path d="M8.36877 10.821C8.34568 10.4982 8.43312 10.2009 8.59888 9.96471C8.85407 9.5859 9.29264 9.3315 9.80761 9.33039C9.80921 9.33042 9.81082 9.3309 9.81242 9.33093C9.62212 9.44077 9.4589 9.58802 9.33808 9.76665C9.17232 10.0028 9.08488 10.3001 9.10788 10.623C9.16782 11.4355 9.90035 12.0848 10.7501 12.0801C10.5376 12.1994 10.2908 12.2745 10.0189 12.2787C9.16577 12.2879 8.42937 11.636 8.36877 10.821Z" fill="white"/>
<g opacity="0.2">
<path opacity="0.2" d="M10.6499 11.5119C10.8638 11.2785 10.9865 10.9924 10.9722 10.6816C10.9476 9.99122 10.2635 9.46269 9.44659 9.49586C9.65571 9.38435 9.89663 9.31308 10.1579 9.30374C10.9772 9.2685 11.6637 9.79788 11.6881 10.4897C11.7023 10.8006 11.5797 11.0867 11.3657 11.3201C11.1094 11.5964 10.714 11.7787 10.2661 11.7991C10.2638 11.799 10.2615 11.7988 10.2585 11.7989C10.4078 11.7213 10.5431 11.6274 10.6499 11.5119Z" fill="black"/>
</g>
<path d="M3.32264 12.0507C1.00243 20.5571 17.4907 26.4639 24.9569 22.5969C22.4374 23.272 2.78294 20.0875 3.36153 12.0552L3.32264 12.0507Z" fill="#656D78"/>
<g opacity="0.2">
<path opacity="0.2" d="M2.91705 11.8728C0.456724 20.4422 17.428 26.2528 25.1634 22.3077C22.5579 23.0058 2.29795 19.9563 2.95715 11.8771L2.91705 11.8728Z" fill="black"/>
</g>
<path d="M11.2932 11.2182C11.0312 11.5041 10.626 11.692 10.1666 11.7116C9.32606 11.7453 8.62046 11.1934 8.58537 10.4774C8.57234 10.1937 8.66737 9.92929 8.8377 9.71635C9.10038 9.37506 9.53991 9.13784 10.0471 9.1214C10.8875 9.08762 11.5938 9.63939 11.6211 10.3575C11.6368 10.6802 11.512 10.9767 11.2932 11.2182ZM2.6709 11.7673C2.0221 20.1501 22.8199 23.3841 25.4909 22.6685C25.5005 22.6745 25.5077 22.6725 25.5056 22.6645C25.5826 22.6283 25.6594 22.5921 25.734 22.548C26.6661 21.565 14.6755 17.5885 16.0145 14.7196C16.0888 14.5557 16.2169 14.3859 16.394 14.2272C18.6428 12.198 27.7901 17.2469 29.2564 16.8774L29.2636 16.8754C29.3204 16.8524 29.3733 16.8148 29.4185 16.7786C30.7228 14.8351 14.3061 -3.19412 5.11863 6.95878C3.52271 8.72564 2.77059 10.3219 2.6709 11.7673Z" fill="#FC6E51"/>
<g opacity="0.3">
<path opacity="0.3" d="M2.96051 11.8765C3.06229 10.4836 3.80037 8.94314 5.3616 7.23575C6.86462 5.59444 8.56421 4.72544 10.3444 4.40318C9.087 4.87005 7.88771 5.65711 6.7933 6.85212C5.23227 8.55956 4.49411 10.1001 4.3922 11.4929C3.79426 18.8193 20.3982 22.0091 25.4407 22.0195C25.457 22.0833 25.4508 22.1412 25.404 22.1904C25.3312 22.2332 25.2563 22.2682 25.181 22.3034C25.1831 22.3111 25.1761 22.313 25.1667 22.3073C22.5612 23.0053 2.3013 19.9558 2.96051 11.8765Z" fill="black"/>
</g>
<g opacity="0.4">
<path opacity="0.4" d="M8.91074 4.78656C17.9763 1.41939 30.1335 14.9708 29.0118 16.6194C28.9676 16.6544 28.916 16.6908 28.8605 16.7132L28.8535 16.7151C28.6219 16.7734 28.1915 16.6939 27.6282 16.5308C27.1496 13.811 17.1592 3.2931 8.91074 4.78656Z" fill="white"/>
</g>
<path d="M15.9154 14.0293C15.7417 14.185 15.616 14.3517 15.5431 14.5124C15.5431 14.5124 26.2238 17.9444 28.5336 16.6292C27.095 16.9916 18.1215 12.0388 15.9154 14.0293Z" fill="#FC6E51"/>
<g opacity="0.2">
<path opacity="0.2" d="M16.3249 14.2033C16.1518 14.3568 16.0263 14.5209 15.9534 14.679C15.9534 14.679 26.5535 18.0151 28.8525 16.7158C27.4221 17.0765 18.5231 12.241 16.3249 14.2033Z" fill="black"/>
</g>
<path d="M25.3042 22.7249C25.5011 22.6722 25.6175 22.4688 25.5643 22.2704C25.5111 22.0719 25.3087 21.954 25.1118 22.0068C23.2799 22.4976 10.98 20.8237 5.74459 16.4246C4.08793 15.0323 3.31265 13.5082 3.43989 11.8957C3.53711 10.5216 4.30754 9.0325 5.72685 7.46799C10.6263 2.08206 17.439 5.49103 21.0643 8.00388C25.8924 11.3507 28.9485 15.6595 28.7346 16.4286C28.5815 16.5141 28.4917 16.6997 28.5456 16.8701C28.6058 17.06 28.7834 17.1748 28.9738 17.1237C29.1304 17.0818 29.2467 17.004 29.3297 16.8863C30.1651 15.6492 26.7288 11.4927 23.1011 8.59909C19.7191 5.90193 11.2052 0.342955 5.18112 6.96526C3.64722 8.65589 2.81332 10.295 2.7037 11.8374C2.556 13.702 3.42085 15.4381 5.27294 16.9945C10.7884 21.6288 23.3407 23.251 25.3042 22.7249Z" fill="white"/>
<path d="M25.6002 22.6456C25.7614 22.6024 25.8964 22.5303 25.9903 22.4371C26.1207 22.3027 26.1731 22.1361 26.1443 21.9636C26.0529 21.4144 25.1821 20.9253 22.7166 19.6676C20.1811 18.3741 15.937 16.2089 16.5887 14.8482C16.6284 14.7635 16.7074 14.6368 16.8724 14.4909C18.1195 13.3827 22.4128 14.9455 25.2538 15.9792C27.4943 16.7945 28.6916 17.2127 29.2943 17.0609C29.5127 16.9971 29.615 16.8096 29.565 16.6114C29.5148 16.4131 29.3129 16.2931 29.1134 16.3435C28.7059 16.4466 27.0087 15.829 25.5114 15.2841C22.1466 14.0603 17.9579 12.5352 16.3797 13.9386C16.1724 14.1205 16.0117 14.3272 15.9149 14.5358C14.9553 16.5406 18.8972 18.5521 22.3751 20.3261C23.5194 20.9101 24.9124 21.6205 25.3156 21.9919C25.199 22.0836 25.132 22.2341 25.1707 22.3784C25.2236 22.576 25.4014 22.6989 25.6002 22.6456Z" fill="white"/>
<path d="M28.8138 17.6434C29.0037 17.5925 29.1699 17.5256 29.3101 17.4408L29.3095 17.44C29.4115 17.3894 29.4735 17.3392 29.5162 17.3019C29.6754 17.162 29.6949 16.8979 29.5593 16.7102C29.4244 16.5236 29.1855 16.4834 29.0262 16.6242C28.9954 16.6325 28.943 16.6758 28.9157 16.6926C27.1377 17.7724 18.975 15.0459 15.9785 13.9047C15.7759 13.828 15.5678 13.945 15.5115 14.1649C15.4554 14.3856 15.5737 14.6259 15.7754 14.7028C16.8438 15.1093 25.7849 18.455 28.8138 17.6434Z" fill="white"/>
<path d="M23.2456 23.2764C23.9905 23.0776 24.6863 22.8206 25.3215 22.5025C25.3614 22.4918 25.3995 22.4748 25.4332 22.4513C25.5025 22.4183 25.5709 22.3847 25.6382 22.3456C25.8176 22.2398 25.8781 22.0105 25.773 21.8315C25.6679 21.6525 25.4377 21.5944 25.2573 21.6981C25.2023 21.7303 25.1456 21.7577 25.0887 21.7842C25.0704 21.7899 25.0527 21.7976 25.0355 21.806C20.1063 24.3112 10.7441 22.8245 5.76824 18.7419C3.97995 17.2744 2.03903 14.8622 2.9542 11.7023C3.01145 11.5033 2.89612 11.2953 2.69639 11.238C2.49833 11.1818 2.28798 11.2959 2.22953 11.4958C1.42813 14.2665 2.51372 17.046 5.28792 19.3221C9.90196 23.1071 17.8245 24.729 23.2456 23.2764Z" fill="white"/>
<path d="M10.8819 12.0954C11.2667 11.9923 11.6075 11.81 11.8665 11.5676C12.1958 11.2569 12.3672 10.8976 12.364 10.5277C12.3654 10.1656 12.1924 9.82686 11.8757 9.57687C11.4969 9.27731 10.9483 9.13085 10.3685 9.17458C9.7606 9.21654 9.14828 9.49393 8.77331 9.90481C8.5208 10.1706 8.3797 10.5006 8.38133 10.8287C8.38845 11.657 9.28657 12.2638 10.3854 12.1801C10.5535 12.1668 10.7209 12.1385 10.8819 12.0954ZM10.0543 9.9153C10.1568 9.88784 10.2627 9.8698 10.369 9.86268C10.7397 9.8343 11.0831 9.92287 11.3123 10.1039C11.4289 10.196 11.5674 10.3545 11.5668 10.5862C11.5689 10.8213 11.4235 11.0077 11.3014 11.123C11.0869 11.3246 10.7386 11.4639 10.3802 11.4926C9.72141 11.5423 9.1819 11.2169 9.17856 10.7673C9.17775 10.6063 9.24673 10.4479 9.37666 10.3105C9.54532 10.1254 9.78498 9.98748 10.0543 9.9153Z" fill="white"/>
<path d="M13.8082 13.3818C13.9016 13.3568 13.9862 13.2967 14.0402 13.2081C14.1485 13.0278 14.0881 12.7965 13.9063 12.6909L11.1687 11.1013C10.9879 10.9938 10.7533 11.0559 10.6433 11.2359C10.5349 11.4161 10.5953 11.6475 10.7772 11.753L13.5147 13.3428C13.6067 13.3969 13.7119 13.4076 13.8082 13.3818Z" fill="white"/>
<path d="M8.89552 10.5575C8.98781 10.5328 9.07199 10.4774 9.12915 10.3965C9.25161 10.2229 9.20327 9.99439 9.02145 9.88654L6.30727 8.271C6.12558 8.16321 5.87936 8.21725 5.75766 8.39068C5.63528 8.56466 5.68286 8.79298 5.86467 8.90083L8.57883 10.5163C8.67624 10.5737 8.7912 10.5855 8.89552 10.5575Z" fill="white"/>
</svg>
