<svg width="102" height="24" viewBox="0 0 102 24" fill="none" xmlns="http://www.w3.org/2000/svg">
<path d="M2.93545 17.9999H0.439453L3.79945 0.791907L9.36745 13.2239L14.9835 0.791907L18.0075 17.9999H15.5115L13.8795 8.35191L9.22345 18.7439L4.61545 8.32791L2.93545 17.9999Z" fill="#2D2824"/>
<path d="M19.701 23.4959L23.589 16.1279L19.101 7.89591H21.933L24.909 13.5839L27.741 7.89591H30.381L22.341 23.4959H19.701Z" fill="#2D2824"/>
<path d="M39.5446 1.99191V8.37591L45.7366 1.99191H48.9526L41.7286 9.23991L49.0006 17.9999H45.7366L40.0246 10.8959L39.5446 11.3759V17.9999H37.0966V1.99191H39.5446Z" fill="#2D2824"/>
<path d="M50.2471 7.89591H52.5991V17.9999H50.2471V7.89591ZM50.3431 4.79991C50.0551 4.51191 49.9111 4.15191 49.9111 3.71991C49.9111 3.28791 50.0551 2.92791 50.3431 2.63991C50.6311 2.35191 50.9911 2.20791 51.4231 2.20791C51.8551 2.20791 52.2151 2.35191 52.5031 2.63991C52.7911 2.92791 52.9351 3.28791 52.9351 3.71991C52.9351 4.15191 52.7911 4.51191 52.5031 4.79991C52.2151 5.08791 51.8551 5.23191 51.4231 5.23191C50.9911 5.23191 50.6311 5.08791 50.3431 4.79991Z" fill="#2D2824"/>
<path d="M59.3115 10.0559H57.5115V17.9999H55.1595V10.0559H54.1755V7.89591H55.1595V4.19991H57.5115V7.89591H59.3115V10.0559Z" fill="#2D2824"/>
<path d="M68.2439 8.35191V11.4479C67.588 10.3119 66.6119 9.74391 65.3159 9.74391C64.4999 9.74391 63.788 10.0319 63.18 10.6079C62.588 11.1839 62.292 11.9679 62.292 12.9599C62.292 13.8719 62.564 14.6399 63.108 15.2639C63.668 15.8879 64.396 16.1999 65.292 16.1999C65.884 16.1999 66.444 16.0479 66.972 15.7439C67.5 15.4399 67.924 15.0159 68.2439 14.4719V17.5679C67.38 18.0639 66.452 18.3119 65.46 18.3119C63.716 18.3119 62.34 17.7999 61.332 16.7759C60.372 15.7839 59.892 14.5199 59.892 12.9839C59.892 11.3679 60.436 10.0399 61.524 8.99991C62.484 8.08791 63.772 7.63191 65.388 7.63191C66.492 7.63191 67.4439 7.87191 68.2439 8.35191Z" fill="#2D2824"/>
<path d="M70.0181 17.9999V0.503906H72.3701V8.75991C73.1061 8.00791 74.0101 7.63191 75.0821 7.63191C76.4261 7.63191 77.4181 8.08791 78.0581 8.99991C78.4901 9.62391 78.7061 10.5599 78.7061 11.8079V17.9999H76.3541V12.0239C76.3541 11.1919 76.2021 10.6079 75.8981 10.2719C75.5781 9.91991 75.1381 9.74391 74.5781 9.74391C73.8101 9.74391 73.2341 10.0239 72.8501 10.5839C72.5301 11.0479 72.3701 11.8959 72.3701 13.1279V17.9999H70.0181Z" fill="#2D2824"/>
<path d="M88.458 14.2559L90.426 15.3599C90.058 16.0639 89.618 16.6399 89.106 17.0879C88.178 17.9039 87.05 18.3119 85.722 18.3119C84.346 18.3119 83.162 17.8559 82.17 16.9439C81.178 16.0319 80.682 14.7199 80.682 13.0079C80.682 11.4079 81.13 10.1119 82.026 9.11991C82.922 8.12791 84.114 7.63191 85.602 7.63191C87.266 7.63191 88.53 8.24791 89.394 9.47991C90.018 10.3759 90.33 11.5999 90.33 13.1519V13.5119H83.082C83.114 14.3759 83.402 15.0399 83.946 15.5039C84.506 15.9679 85.13 16.1999 85.818 16.1999C86.442 16.1999 86.978 16.0159 87.426 15.6479C87.874 15.3119 88.218 14.8479 88.458 14.2559ZM83.25 11.5919H87.93C87.802 11.0319 87.522 10.5839 87.09 10.2479C86.674 9.91191 86.178 9.74391 85.602 9.74391C85.026 9.74391 84.53 9.91191 84.114 10.2479C83.698 10.5839 83.41 11.0319 83.25 11.5919Z" fill="#2D2824"/>
<path d="M92.3778 17.9999V7.89591H94.7298V8.83191C95.4498 8.03191 96.3618 7.63191 97.4658 7.63191C98.7938 7.63191 99.7858 8.08791 100.442 8.99991C100.858 9.59191 101.066 10.5279 101.066 11.8079V17.9999H98.7138V12.3839C98.7138 11.7759 98.6658 11.2799 98.5698 10.8959C98.4738 10.5119 98.3218 10.2479 98.1138 10.1039C97.9058 9.94391 97.7138 9.84791 97.5378 9.81591C97.3778 9.76791 97.1538 9.74391 96.8658 9.74391C96.5298 9.74391 96.2578 9.77591 96.0498 9.83991C95.8578 9.88791 95.6418 10.0159 95.4018 10.2239C95.1778 10.4159 95.0098 10.7599 94.8978 11.2559C94.7858 11.7359 94.7298 12.3679 94.7298 13.1519V17.9999H92.3778Z" fill="#2D2824"/>
</svg>
