<svg width="67" height="67" viewBox="0 0 67 67" fill="none" xmlns="http://www.w3.org/2000/svg">
<path d="M66.4765 33.5C66.4765 51.712 51.712 66.4767 33.5 66.4767C15.288 66.4767 0.523438 51.712 0.523438 33.5C0.523438 15.2876 15.2881 0.523438 33.5 0.523438C51.7118 0.523438 66.4765 15.2876 66.4765 33.5Z" fill="#F6F8FA"/>
<path d="M2.61726 33.5C2.61726 15.6387 16.8206 1.10412 34.5469 0.550023C34.1984 0.539284 33.8508 0.523438 33.5001 0.523438C15.2881 0.523437 0.523438 15.2876 0.523438 33.5C0.523438 51.712 15.2881 66.4767 33.5 66.4767C33.8507 66.4767 34.1983 66.4603 34.5468 66.4501C16.8205 65.8958 2.61726 51.3613 2.61726 33.5Z" fill="white"/>
<g opacity="0.2">
<path opacity="0.2" d="M64.3828 33.5C64.3828 51.3613 50.1794 65.8958 32.4531 66.4501C32.8017 66.4603 33.1493 66.4767 33.5 66.4767C51.712 66.4767 66.4766 51.712 66.4766 33.5C66.4766 15.2876 51.712 0.523438 33.5 0.523438C33.1493 0.523438 32.8017 0.539284 32.4531 0.550023C50.1794 1.10412 64.3828 15.6387 64.3828 33.5Z" fill="black"/>
</g>
<path d="M61.242 33.4999C61.242 48.8207 48.8187 61.2422 33.4999 61.2422C18.1811 61.2422 5.75781 48.8207 5.75781 33.4999C5.75781 18.1801 18.1813 5.75781 33.4999 5.75781C48.8186 5.75781 61.242 18.1801 61.242 33.4999Z" fill="white"/>
<g opacity="0.1">
<path opacity="0.1" d="M7.85151 33.4999C7.85151 18.5313 19.7138 6.33588 34.5467 5.7844C34.1993 5.77104 33.8506 5.75781 33.4999 5.75781C18.1811 5.75781 5.75781 18.1801 5.75781 33.4999C5.75781 48.8207 18.1813 61.2422 33.4999 61.2422C33.8506 61.2422 34.1993 61.2288 34.5467 61.2156C19.7137 60.6634 7.85151 48.469 7.85151 33.4999Z" fill="black"/>
</g>
<g opacity="0.5">
<path opacity="0.5" d="M59.1483 33.4999C59.1483 48.469 47.2862 60.6634 32.4531 61.2156C32.8007 61.2289 33.1493 61.2422 33.5 61.2422C48.8188 61.2422 61.2422 48.8198 61.2422 33.4999C61.2422 18.1797 48.8188 5.75781 33.5 5.75781C33.1493 5.75781 32.8007 5.77104 32.4531 5.7844C47.2862 6.33588 59.1483 18.5308 59.1483 33.4999Z" fill="white"/>
</g>
<path d="M28.9926 51.9594L20.4141 47.6328L22.699 45.3511L28.5796 48.6553L28.9926 51.9594Z" fill="#A0D468"/>
<g opacity="0.5">
<path opacity="0.5" d="M21.461 47.6329L22.7123 46.3836L22.0436 46.0063L20.4141 47.6329L28.9926 51.9595L28.922 51.3952L21.461 47.6329Z" fill="white"/>
</g>
<path d="M28.5801 48.8896C28.9574 50.2922 29.6485 51.5487 30.6637 52.5639C34.9554 56.8567 43.4777 55.2965 49.6956 49.0777C54.2705 44.5026 56.3327 38.6713 55.3694 34.2017H55.3807C57.7147 41.7395 55.7989 45.7275 49.581 51.9464C43.362 58.1653 28.6016 60.6668 28.5801 48.8896Z" fill="#965353"/>
<g opacity="0.2">
<path opacity="0.2" d="M28.5801 48.8896C28.9574 50.2922 29.6485 51.5487 30.6637 52.5639C34.9554 56.8567 43.4777 55.2965 49.6956 49.0777C54.2705 44.5026 56.3327 38.6713 55.3694 34.2017H55.3807C57.7147 41.7395 55.7989 45.7275 49.581 51.9464C43.362 58.1653 28.6016 60.6668 28.5801 48.8896Z" fill="black"/>
</g>
<path d="M28.579 48.8892C28.4532 48.4281 28.3592 47.9364 28.3173 47.4445C28.2027 46.5439 28.213 45.5912 28.3275 44.6179C28.6209 42.2511 29.5532 39.7393 31.0704 37.3417C31.9189 36.0231 32.9443 34.7348 34.1486 33.531C35.5932 32.0865 37.1532 30.9035 38.7655 29.9717C41.4451 28.433 44.2402 27.6162 46.7847 27.6162C49.2864 27.6162 51.5478 28.4122 53.1805 30.0453C54.3112 31.1755 55.034 32.5996 55.3682 34.2011C56.3313 38.6707 54.2692 44.5021 49.6944 49.0771C43.4764 55.296 34.9542 56.8561 30.6624 52.5633C29.6472 51.5481 28.9563 50.2918 28.579 48.8892Z" fill="#965353"/>
<g opacity="0.1">
<path opacity="0.1" d="M28.579 48.8892C28.4532 48.4281 28.3592 47.9364 28.3173 47.4445C28.2027 46.5439 28.213 45.5912 28.3275 44.6179C28.6209 42.2511 29.5532 39.7393 31.0704 37.3417C31.9189 36.0231 32.9443 34.7348 34.1486 33.531C35.5932 32.0865 37.1532 30.9035 38.7655 29.9717C41.4451 28.433 44.2402 27.6162 46.7847 27.6162C49.2864 27.6162 51.5478 28.4122 53.1805 30.0453C54.3112 31.1755 55.034 32.5996 55.3682 34.2011C56.3313 38.6707 54.2692 44.5021 49.6944 49.0771C43.4764 55.296 34.9542 56.8561 30.6624 52.5633C29.6472 51.5481 28.9563 50.2918 28.579 48.8892Z" fill="white"/>
</g>
<g opacity="0.2">
<path opacity="0.2" d="M55.3682 34.2011C55.034 32.5996 54.3112 31.1755 53.1805 30.0453C51.5478 28.4121 49.2864 27.6162 46.7847 27.6162C46.4341 27.6162 46.0773 27.6352 45.7174 27.6664C47.8071 27.8576 49.6812 28.6392 51.0868 30.0454C52.2175 31.1756 52.9403 32.5997 53.2746 34.2013C54.2377 38.6709 52.1755 44.5022 47.6005 49.0772C44.1094 52.5686 39.8932 54.5908 36.1055 54.9343C40.3676 55.2921 45.5417 53.2301 49.6945 49.0772C54.2693 44.5022 56.3314 38.6707 55.3682 34.2011Z" fill="black"/>
</g>
<g opacity="0.3">
<path opacity="0.3" d="M32.7563 52.5636C31.7412 51.5484 31.05 50.2919 30.6727 48.8893C30.547 48.4282 30.4529 47.9366 30.411 47.4447C30.2966 46.544 30.3068 45.5913 30.4212 44.618C30.7146 42.2512 31.6469 39.7394 33.1641 37.3419C34.0126 36.0232 35.0382 34.7349 36.2424 33.5311C37.6869 32.0866 39.247 30.9036 40.8593 29.9718C43.1688 28.6453 45.5641 27.8591 47.8112 27.6664C47.4738 27.6352 47.1323 27.6162 46.7847 27.6162C44.2401 27.6162 41.4451 28.433 38.7655 29.9717C37.1532 30.9035 35.5932 32.0863 34.1487 33.531C32.9444 34.7347 31.9191 36.0229 31.0704 37.3417C29.5532 39.7392 28.6209 42.251 28.3276 44.6179C28.213 45.5912 28.2027 46.5439 28.3173 47.4445C28.3592 47.9364 28.4533 48.4281 28.579 48.8892C28.9563 50.2918 29.6474 51.5482 30.6626 52.5635C32.5448 54.4457 35.2406 55.2021 38.1992 54.9343C36.0799 54.7556 34.1825 53.9898 32.7563 52.5636Z" fill="white"/>
</g>
<path d="M19.3672 52.8672C19.9428 52.8672 20.414 53.3385 20.414 53.9141C20.414 54.4897 19.9427 54.9609 19.3672 54.9609C18.7915 54.9609 18.3203 54.4895 18.3203 53.9141C18.3203 53.3384 18.7915 52.8672 19.3672 52.8672Z" fill="#A0D468"/>
<path d="M17.2735 50.7735C17.2735 51.3491 16.8022 51.8204 16.2266 51.8204C15.651 51.8204 15.1797 51.3489 15.1797 50.7735C15.1797 50.198 15.651 49.7266 16.2266 49.7266C16.8022 49.7266 17.2735 50.198 17.2735 50.7735Z" fill="#A0D468"/>
<path d="M13.9549 47.046C14.0704 47.2136 14.1328 47.4131 14.1328 47.6327C14.1328 48.2084 13.6614 48.6796 13.0858 48.6796C12.73 48.6796 12.405 48.4914 12.2169 48.2196C12.1014 48.0519 12.0391 47.8525 12.0391 47.6327C12.0391 47.0571 12.5104 46.5859 13.086 46.5859C13.4417 46.5859 13.7667 46.774 13.9549 47.046Z" fill="#A0D468"/>
<path d="M18.0167 45.8426C18.2049 46.042 18.3203 46.2935 18.3203 46.586C18.3203 47.1616 17.8489 47.6328 17.2735 47.6328C16.844 47.6328 16.4678 47.3711 16.3104 46.9948C16.2583 46.8681 16.2266 46.7332 16.2266 46.586C16.2266 46.0103 16.6979 45.5391 17.2735 45.5391C17.567 45.5391 17.8174 45.6537 18.0167 45.8426Z" fill="#A0D468"/>
<path d="M17.2735 42.3565C17.2735 42.9321 16.8022 43.4033 16.2266 43.4033C15.651 43.4033 15.1797 42.9319 15.1797 42.3565C15.1797 41.7707 15.651 41.3096 16.2266 41.3096C16.8022 41.3096 17.2735 41.7707 17.2735 42.3565Z" fill="#A0D468"/>
<path d="M8.89847 37.1641C9.47405 37.1641 9.94538 37.6354 9.94538 38.2108C9.94538 38.7866 9.47405 39.2578 8.89847 39.2578C8.3229 39.2578 7.85156 38.7864 7.85156 38.2108C7.85169 37.6353 8.32303 37.1641 8.89847 37.1641Z" fill="#A0D468"/>
<g opacity="0.5">
<path opacity="0.5" d="M8.89848 38.2108C8.89848 37.8296 9.11522 37.5097 9.42193 37.3255C9.26556 37.2324 9.09269 37.1641 8.89848 37.1641C8.3229 37.1641 7.85156 37.6354 7.85156 38.2108C7.85156 38.7866 8.3229 39.2578 8.89848 39.2578C9.09269 39.2578 9.26556 39.1893 9.42193 39.0963C9.11535 38.9121 8.89848 38.5922 8.89848 38.2108Z" fill="white"/>
</g>
<path d="M14.1329 39.2579C14.1329 39.8334 13.6616 40.3046 13.086 40.3046C12.5104 40.3046 12.0391 39.8333 12.0391 39.2579C12.0391 38.6821 12.5104 38.2109 13.086 38.2109C13.6616 38.2109 14.1329 38.6821 14.1329 39.2579Z" fill="#A0D468"/>
<path d="M17.2735 37.1641C17.2735 37.7397 16.8022 38.2109 16.2266 38.2109C15.651 38.2109 15.1797 37.7395 15.1797 37.1641C15.1797 36.5884 15.651 36.1172 16.2266 36.1172C16.8022 36.1171 17.2735 36.5884 17.2735 37.1641Z" fill="#A0D468"/>
<path d="M51.8204 20.4561C53.9878 20.4561 55.8505 21.7646 56.6469 23.6489C56.9085 24.2771 57.0547 24.9682 57.0547 25.6905H46.7853H46.5859C46.5859 22.7907 48.9312 20.4561 51.8204 20.4561Z" fill="#ED5565"/>
<g opacity="0.2">
<path opacity="0.2" d="M56.6473 23.6489C55.8509 21.7646 53.9881 20.4561 51.8208 20.4561C51.6675 20.4561 51.5234 20.4883 51.373 20.5011C53.2788 20.7178 54.8788 21.9416 55.6004 23.6489C55.8622 24.2771 56.0083 24.9682 56.0083 25.6905H57.0551C57.0551 24.9684 56.909 24.2771 56.6473 23.6489Z" fill="black"/>
</g>
<g opacity="0.3">
<path opacity="0.3" d="M52.4195 20.5011C52.2222 20.4786 52.0239 20.4561 51.8204 20.4561C48.9312 20.4561 46.5859 22.7906 46.5859 25.6905H46.7853H47.6328C47.6328 22.9445 49.7429 20.7312 52.4195 20.5011Z" fill="white"/>
</g>
<path d="M43.9277 14.6142C45.9794 12.5726 49.2878 12.5726 51.3396 14.6142L43.9277 22.0263C41.8861 19.9743 41.8861 16.6661 43.9277 14.6142Z" fill="#ED5565"/>
<g opacity="0.2">
<path opacity="0.2" d="M47.1088 13.133C48.2691 13.2497 49.3998 13.727 50.2914 14.6144L43.457 21.4492C43.6042 21.6466 43.7474 21.8464 43.9263 22.0264L51.3382 14.6143C50.1779 13.4601 48.6177 12.9822 47.1088 13.133Z" fill="black"/>
</g>
<g opacity="0.3">
<path opacity="0.3" d="M44.9744 14.6144C45.866 13.7272 46.9966 13.2497 48.1571 13.133C46.6481 12.9822 45.088 13.4601 43.9277 14.6144C41.8861 16.6663 41.8861 19.9746 43.9277 22.0265L44.5052 21.4493C42.9688 19.3939 43.1119 16.4864 44.9744 14.6144Z" fill="white"/>
</g>
<path d="M40.3047 9.94531V20.414C37.4156 20.414 35.0703 18.0688 35.0703 15.1797C35.0703 12.2905 37.4156 9.94531 40.3047 9.94531Z" fill="#ED5565"/>
<g opacity="0.2">
<path opacity="0.2" d="M39.2578 10.051V20.3081C39.5962 20.3771 39.9458 20.4139 40.3046 20.4139V9.94531C39.9458 9.94531 39.5962 9.98211 39.2578 10.051Z" fill="black"/>
</g>
<g opacity="0.3">
<path opacity="0.3" d="M36.1172 15.1797C36.1172 12.6494 37.9165 10.5362 40.3047 10.0511V9.94531C37.4156 9.94531 35.0703 12.2906 35.0703 15.1797C35.0703 18.0689 37.4156 20.414 40.3047 20.414V20.3082C37.9166 19.8231 36.1172 17.7101 36.1172 15.1797Z" fill="white"/>
</g>
<path d="M37.1641 23.5547C38.3153 23.5547 39.258 24.4968 39.258 25.6485C39.258 26.8001 38.3153 27.7422 37.1641 27.7422C36.2329 27.7422 35.4261 27.1247 35.1645 26.266C35.102 26.0778 35.0703 25.8683 35.0703 25.6485C35.0703 24.4967 36.013 23.5547 37.1641 23.5547Z" fill="#FFCE54"/>
<path d="M32.705 26.5174C32.8613 26.8942 32.9451 27.3025 32.9451 27.7422C32.9451 29.4802 31.5425 30.8828 29.8047 30.8828C28.0778 30.8828 26.6641 29.4802 26.6641 27.7422C26.6641 26.0042 28.0779 24.6016 29.8047 24.6016C29.8567 24.6016 29.8987 24.6016 29.9519 24.6118C31.1867 24.6644 32.2438 25.4286 32.705 26.5174Z" fill="#FFCE54"/>
<g opacity="0.5">
<path opacity="0.5" d="M27.7108 27.7422C27.7108 26.1857 28.8477 24.9067 30.325 24.6547C30.2023 24.6348 30.0786 24.6174 29.9519 24.6118C29.8987 24.6016 29.8567 24.6016 29.8047 24.6016C28.0778 24.6016 26.6641 26.0042 26.6641 27.7422C26.6641 29.4802 28.0779 30.8828 29.8047 30.8828C29.9846 30.8828 30.1584 30.8593 30.329 30.8301C28.8498 30.5801 27.7108 29.3002 27.7108 27.7422Z" fill="white"/>
</g>
<g opacity="0.2">
<path opacity="0.2" d="M31.8565 27.7422C31.8565 29.2987 30.7196 30.5776 29.2423 30.8296C29.3651 30.8495 29.4887 30.8669 29.6156 30.8726C29.6688 30.8828 29.7107 30.8828 29.7628 30.8828C31.4895 30.8828 32.9034 29.4802 32.9034 27.7422C32.9034 26.0042 31.4895 24.6016 29.7628 24.6016C29.5828 24.6016 29.4091 24.6251 29.2383 24.6542C30.7176 24.9041 31.8565 26.1841 31.8565 27.7422Z" fill="black"/>
</g>
<path d="M30.3595 17.2734C31.804 17.2734 32.9766 18.4461 32.9766 19.8906C32.9766 21.3351 31.804 22.5077 30.3595 22.5077C30.2654 22.5077 30.1816 22.5077 30.0876 22.4975C29.1245 22.3928 28.3077 21.7746 27.9519 20.9164C27.8159 20.6026 27.7422 20.2463 27.7422 19.8906C27.7422 18.4461 28.9148 17.2734 30.3595 17.2734Z" fill="#FFCE54"/>
<g opacity="0.5">
<path opacity="0.5" d="M28.9986 20.9165C28.8627 20.6028 28.7891 20.2464 28.7891 19.8907C28.7891 18.6255 29.6887 17.5689 30.8828 17.3261C30.7131 17.2919 30.5382 17.2734 30.3593 17.2734C28.9148 17.2734 27.7422 18.4461 27.7422 19.8906C27.7422 20.2464 27.8159 20.6026 27.9519 20.9164C28.3077 21.7746 29.1245 22.3926 30.0876 22.4975C30.1816 22.5077 30.2654 22.5077 30.3595 22.5077C30.5517 22.5077 30.7387 22.4836 30.9197 22.4443C30.0538 22.2757 29.3268 21.7078 28.9986 20.9165Z" fill="white"/>
</g>
<g opacity="0.2">
<path opacity="0.2" d="M31.6885 18.8646C31.8245 19.1784 31.8982 19.5348 31.8982 19.8906C31.8982 21.1557 30.9985 22.2123 29.8045 22.4551C29.9741 22.4894 30.1489 22.5077 30.328 22.5077C31.7725 22.5077 32.9451 21.3351 32.9451 19.8906C32.9451 19.5348 32.8715 19.1784 32.7356 18.8646C32.3797 18.0064 31.5629 17.3884 30.5998 17.2837C30.5057 17.2734 30.422 17.2734 30.3278 17.2734C30.1357 17.2734 29.9486 17.2975 29.7676 17.3368C30.6335 17.5055 31.3603 18.0734 31.6885 18.8646Z" fill="black"/>
</g>
<path d="M23.0312 10.9922C24.4759 10.9922 25.6484 12.1648 25.6484 13.6093C25.6484 15.0538 24.4757 16.2265 23.0312 16.2265C21.5867 16.2265 20.4141 15.0538 20.4141 13.6093C20.4139 12.1648 21.5866 10.9922 23.0312 10.9922Z" fill="#FFCE54"/>
<path d="M13.086 20.4141C14.2372 20.4141 15.1797 21.3562 15.1797 22.5079C15.1797 23.6596 14.237 24.6016 13.086 24.6016C11.9236 24.6016 10.9922 23.6596 10.9922 22.5079C10.9922 22.0785 11.1179 21.6705 11.348 21.3352C11.7252 20.7805 12.3632 20.4141 13.086 20.4141Z" fill="#FFCE54"/>
<g opacity="0.5">
<path opacity="0.5" d="M21.6861 14.6353C21.5502 14.3215 21.4766 13.9652 21.4766 13.6095C21.4766 12.3442 22.3762 11.2878 23.5703 11.0448C23.4006 11.0107 23.2257 10.9922 23.0468 10.9922C21.6023 10.9922 20.4297 12.1648 20.4297 13.6093C20.4297 13.965 20.5034 14.3214 20.6394 14.6352C20.9952 15.4935 21.812 16.1114 22.7751 16.2163C22.8691 16.2265 22.9529 16.2265 23.047 16.2265C23.2392 16.2265 23.4262 16.2025 23.6072 16.1632C22.7412 15.9945 22.0142 15.4266 21.6861 14.6353Z" fill="white"/>
</g>
<g opacity="0.2">
<path opacity="0.2" d="M24.376 12.5835C24.512 12.8973 24.5857 13.2536 24.5857 13.6093C24.5857 14.8746 23.686 15.931 22.4919 16.174C22.6616 16.2081 22.8364 16.2265 23.0153 16.2265C24.4598 16.2265 25.6325 15.0538 25.6325 13.6093C25.6325 13.2535 25.5589 12.8973 25.4229 12.5835C25.0672 11.7252 24.2503 11.1073 23.2873 11.0024C23.1932 10.9922 23.1095 10.9922 23.0153 10.9922C22.8231 10.9922 22.6361 11.0162 22.4551 11.0556C23.321 11.2243 24.0478 11.7922 24.376 12.5835Z" fill="black"/>
</g>
<path d="M25.4603 21.2621C25.586 21.6598 25.6485 22.0784 25.6485 22.5078C25.6485 24.8214 23.7745 26.6953 21.461 26.6953C19.1474 26.6953 17.2734 24.8214 17.2734 22.5078C17.2734 20.1943 19.1474 18.3203 21.461 18.3203C23.3451 18.3203 24.9257 19.5558 25.4603 21.2621Z" fill="#FFCE54"/>
<g opacity="0.5">
<path opacity="0.5" d="M18.3203 22.5078C18.3203 20.3548 19.9499 18.6031 22.0395 18.3673C21.8494 18.3413 21.6583 18.3203 21.461 18.3203C19.1474 18.3203 17.2734 20.1943 17.2734 22.5078C17.2734 24.8214 19.1474 26.6953 21.461 26.6953C21.6398 26.6953 21.8106 26.6647 21.9844 26.6427C19.9214 26.3825 18.3203 24.642 18.3203 22.5078Z" fill="white"/>
</g>
<g opacity="0.2">
<path opacity="0.2" d="M24.6021 22.508C24.6021 24.661 22.9726 26.4127 20.8828 26.6483C21.073 26.6744 21.2642 26.6953 21.4614 26.6953C23.775 26.6953 25.6489 24.8214 25.6489 22.5078C25.6489 20.1942 23.775 18.3203 21.4614 18.3203C21.2825 18.3203 21.1117 18.351 20.9379 18.373C23.0011 18.6333 24.6021 20.3739 24.6021 22.508Z" fill="black"/>
</g>
<path d="M13.6094 26.6953C15.6296 26.6953 17.2736 28.3388 17.2736 30.3594C17.2736 32.38 15.6296 34.0234 13.6094 34.0234C11.5893 34.0234 9.94531 32.38 9.94531 30.3594C9.94531 28.3388 11.5893 26.6953 13.6094 26.6953Z" fill="#FFCE54"/>
<g opacity="0.5">
<path opacity="0.5" d="M10.9922 30.3594C10.9922 28.5085 12.3622 27.0031 14.1328 26.748C13.9601 26.7229 13.7883 26.6953 13.6094 26.6953C11.5893 26.6953 9.94531 28.328 9.94531 30.3594C9.94531 32.3795 11.5892 34.0234 13.6094 34.0234C13.7883 34.0234 13.9601 33.9953 14.1328 33.9703C12.3622 33.7137 10.9922 32.2 10.9922 30.3594Z" fill="white"/>
</g>
<g opacity="0.2">
<path opacity="0.2" d="M16.2265 30.3594C16.2265 32.2103 14.8567 33.7157 13.0859 33.9708C13.2587 33.9958 13.4304 34.0234 13.6094 34.0234C15.6296 34.0234 17.2736 32.3907 17.2736 30.3594C17.2736 28.3393 15.6296 26.6953 13.6094 26.6953C13.4305 26.6953 13.2587 26.7235 13.0859 26.7485C14.8565 27.005 16.2265 28.5187 16.2265 30.3594Z" fill="black"/>
</g>
<g opacity="0.5">
<path opacity="0.5" d="M12.0391 22.5079C12.0391 21.5372 12.7119 20.7229 13.6114 20.4882C13.4428 20.4447 13.269 20.4141 13.086 20.4141C11.9349 20.4141 10.9922 21.3562 10.9922 22.5079C10.9922 23.6596 11.9349 24.6016 13.086 24.6016C13.269 24.6016 13.4428 24.5709 13.6114 24.5275C12.7119 24.2929 12.0391 23.4787 12.0391 22.5079Z" fill="white"/>
</g>
<g opacity="0.2">
<path opacity="0.2" d="M14.1329 22.5079C14.1329 23.4786 13.4601 24.2929 12.5605 24.5275C12.7292 24.5709 12.903 24.6016 13.0861 24.6016C14.2373 24.6016 15.1798 23.6596 15.1798 22.5079C15.1798 21.3562 14.2371 20.4141 13.0861 20.4141C12.9031 20.4141 12.7292 20.4447 12.5605 20.4882C13.4601 20.723 14.1329 21.5372 14.1329 22.5079Z" fill="black"/>
</g>
<g opacity="0.5">
<path opacity="0.5" d="M36.1172 25.6484C36.1172 24.6777 36.79 23.8634 37.6896 23.6288C37.5209 23.5853 37.3471 23.5547 37.164 23.5547C36.013 23.5547 35.0703 24.4968 35.0703 25.6485C35.0703 26.8001 36.013 27.7422 37.164 27.7422C37.347 27.7422 37.5209 27.7116 37.6896 27.6681C36.79 27.4334 36.1172 26.6191 36.1172 25.6484Z" fill="white"/>
</g>
<g opacity="0.2">
<path opacity="0.2" d="M38.211 25.6485C38.211 26.6192 37.5383 27.4335 36.6387 27.6681C36.8074 27.7116 36.9811 27.7422 37.1641 27.7422C38.3153 27.7422 39.2579 26.8001 39.2579 25.6485C39.2579 24.4968 38.3153 23.5547 37.1641 23.5547C36.9813 23.5547 36.8074 23.5853 36.6387 23.6288C37.5383 23.8635 38.211 24.6778 38.211 25.6485Z" fill="black"/>
</g>
<path d="M28.5795 48.655L19.3672 43.4451L21.832 41.0181L28.2513 45.5389L28.5795 48.655Z" fill="#8CC152"/>
<g opacity="0.5">
<path opacity="0.5" d="M20.414 43.4452L21.8331 42.0487L21.2237 41.6172L19.3672 43.4452L28.5795 48.6551L28.5129 48.0253L20.414 43.4452Z" fill="white"/>
</g>
<g opacity="0.2">
<path opacity="0.2" d="M22.043 46.0052L28.5789 49.7022L28.4613 48.5899L22.6983 45.3511L22.043 46.0052Z" fill="black"/>
</g>
<path d="M28.2513 45.5392L19.3672 39.258L21.651 37.0117L28.6367 42.9444L28.2513 45.5392Z" fill="#A0D468"/>
<g opacity="0.5">
<path opacity="0.5" d="M20.414 39.2581L21.6429 38.0496L21.0816 37.5732L19.3672 39.2581L28.2513 45.5393L28.3504 44.8695L20.414 39.2581Z" fill="white"/>
</g>
<g opacity="0.2">
<path opacity="0.2" d="M28.2502 46.5858L28.3147 46.1513L28.2502 45.5389L21.831 41.0181L21.2227 41.6171L28.2502 46.5858Z" fill="black"/>
</g>
<path d="M28.6367 42.9443L19.3672 35.0702L22.8675 33.3364L29.6192 40.0624L28.6367 42.9443Z" fill="#8CC152"/>
<g opacity="0.5">
<path opacity="0.5" d="M20.414 35.0703L22.518 34.0286L22.1704 33.6826L19.3672 35.0703L28.6367 42.9444L28.8719 42.2544L20.414 35.0703Z" fill="white"/>
</g>
<g opacity="0.2">
<path opacity="0.2" d="M21.0801 37.5732L28.4983 43.8737L28.6362 42.9444L21.6505 37.0117L21.0801 37.5732Z" fill="black"/>
</g>
<path d="M31.071 37.3419L29.6193 40.0624L20.4141 30.8829L23.5548 29.8359L31.071 37.3419Z" fill="#A0D468"/>
<g opacity="0.5">
<path opacity="0.5" d="M21.461 30.8829L23.8165 30.0977L23.5548 29.8359L20.4141 30.8829L29.6193 40.0624L29.9832 39.3805L21.461 30.8829Z" fill="white"/>
</g>
<g opacity="0.2">
<path opacity="0.2" d="M22.1699 33.6815L29.3519 40.8434L29.6187 40.0624L22.867 33.3364L22.1699 33.6815Z" fill="black"/>
</g>
<g opacity="0.5">
<path opacity="0.5" d="M16.2266 37.1641C16.2266 36.7827 16.4433 36.4628 16.7501 36.2787C16.5937 36.1857 16.4208 36.1172 16.2266 36.1172C15.651 36.1172 15.1797 36.5885 15.1797 37.1641C15.1797 37.7397 15.651 38.2109 16.2266 38.2109C16.4208 38.2109 16.5937 38.1425 16.7501 38.0494C16.4433 37.8654 16.2266 37.5453 16.2266 37.1641Z" fill="white"/>
</g>
<g opacity="0.5">
<path opacity="0.5" d="M13.086 39.2579C13.086 38.8765 13.3027 38.5565 13.6094 38.3724C13.4531 38.2794 13.2802 38.2109 13.086 38.2109C12.5104 38.2109 12.0391 38.6823 12.0391 39.2579C12.0391 39.8334 12.5104 40.3046 13.086 40.3046C13.2802 40.3046 13.4529 40.2363 13.6094 40.1433C13.3026 39.959 13.086 39.6391 13.086 39.2579Z" fill="white"/>
</g>
<path d="M12.0391 42.3984C12.6147 42.3984 13.086 42.8698 13.086 43.4452C13.086 44.0209 12.6147 44.4921 12.0391 44.4921C11.4634 44.4921 10.9922 44.0208 10.9922 43.4452C10.9922 42.8698 11.4634 42.3984 12.0391 42.3984Z" fill="#A0D468"/>
<g opacity="0.5">
<path opacity="0.5" d="M12.0391 43.4452C12.0391 43.064 12.2558 42.744 12.5626 42.5598C12.4062 42.4668 12.2334 42.3984 12.0391 42.3984C11.4634 42.3984 10.9922 42.8698 10.9922 43.4452C10.9922 44.0209 11.4635 44.4921 12.0391 44.4921C12.2333 44.4921 12.4061 44.4236 12.5626 44.3307C12.2558 44.1467 12.0391 43.8267 12.0391 43.4452Z" fill="white"/>
</g>
<g opacity="0.5">
<path opacity="0.5" d="M13.086 47.6327C13.086 47.2515 13.3027 46.9315 13.6094 46.7474C13.4531 46.6543 13.2802 46.5859 13.086 46.5859C12.5104 46.5859 12.0391 47.0573 12.0391 47.6327C12.0391 48.2084 12.5104 48.6796 13.086 48.6796C13.2802 48.6796 13.4529 48.6111 13.6094 48.5182C13.3026 48.3341 13.086 48.0141 13.086 47.6327Z" fill="white"/>
</g>
<g opacity="0.5">
<path opacity="0.5" d="M17.2735 46.586C17.2735 46.2046 17.4901 45.8847 17.7969 45.7005C17.6406 45.6076 17.4677 45.5391 17.2735 45.5391C16.6978 45.5391 16.2266 46.0104 16.2266 46.586C16.2266 47.1616 16.6979 47.6328 17.2735 47.6328C17.4677 47.6328 17.6404 47.5644 17.7969 47.4713C17.4901 47.2873 17.2735 46.9673 17.2735 46.586Z" fill="white"/>
</g>
<g opacity="0.5">
<path opacity="0.5" d="M16.2266 50.7735C16.2266 50.3921 16.4433 50.0722 16.7501 49.8882C16.5937 49.7951 16.4208 49.7266 16.2266 49.7266C15.651 49.7266 15.1797 50.198 15.1797 50.7735C15.1797 51.3489 15.651 51.8204 16.2266 51.8204C16.4208 51.8204 16.5937 51.7519 16.7501 51.6588C16.4433 51.4749 16.2266 51.155 16.2266 50.7735Z" fill="white"/>
</g>
<g opacity="0.5">
<path opacity="0.5" d="M19.3672 53.9141C19.3672 53.5327 19.584 53.2128 19.8907 53.0287C19.7343 52.9357 19.5614 52.8672 19.3672 52.8672C18.7915 52.8672 18.3203 53.3385 18.3203 53.9141C18.3203 54.4897 18.7916 54.9609 19.3672 54.9609C19.5614 54.9609 19.7342 54.8925 19.8907 54.7994C19.584 54.6153 19.3672 54.2953 19.3672 53.9141Z" fill="white"/>
</g>
<g opacity="0.5">
<path opacity="0.5" d="M16.2266 42.3565C16.2266 41.9751 16.4433 41.6541 16.7501 41.471C16.5937 41.3781 16.4208 41.3096 16.2266 41.3096C15.651 41.3096 15.1797 41.7809 15.1797 42.3565C15.1797 42.9321 15.651 43.4033 16.2266 43.4033C16.4208 43.4033 16.5937 43.3349 16.7501 43.2418C16.4433 43.0588 16.2266 42.7378 16.2266 42.3565Z" fill="white"/>
</g>
<path d="M43.9269 22.5497C43.793 22.5497 43.6579 22.4981 43.5557 22.3953C41.32 20.1481 41.32 16.4923 43.5557 14.2452C45.8038 12.0083 49.4598 12.0073 51.7079 14.2431C51.9134 14.447 51.9134 14.7782 51.71 14.9833C51.5054 15.1888 51.1742 15.1888 50.9699 14.9854C49.1296 13.1544 46.1362 13.1544 44.2959 14.9854C42.4671 16.8236 42.4671 19.817 44.298 21.6572C44.5016 21.8621 44.5016 22.1934 44.2959 22.3974C44.1937 22.4991 44.0609 22.5497 43.9269 22.5497Z" fill="white"/>
<path d="M43.9278 22.5496C43.794 22.5496 43.6599 22.4986 43.5577 22.3963C43.3532 22.1918 43.3532 21.8606 43.5577 21.6561L50.9698 14.2441C51.1742 14.0397 51.5054 14.0397 51.7099 14.2441C51.9143 14.4486 51.9144 14.7798 51.7099 14.9843L44.2978 22.3963C44.1956 22.4986 44.0618 22.5496 43.9278 22.5496Z" fill="white"/>
<path d="M46.1574 17.3672C46.0235 17.3672 45.8895 17.3162 45.7874 17.2139L45.044 16.4707C44.8395 16.2661 44.8395 15.9349 45.044 15.7305C45.2486 15.526 45.5798 15.526 45.7842 15.7305L46.5275 16.4737C46.732 16.6781 46.732 17.0093 46.5275 17.2137C46.4252 17.3163 46.2912 17.3672 46.1574 17.3672Z" fill="white"/>
<path d="M45.539 18.8438H44.4922C44.2028 18.8438 43.9688 18.6098 43.9688 18.3203C43.9688 18.0309 44.2028 17.7969 44.4922 17.7969H45.539C45.8283 17.7969 46.0624 18.0309 46.0624 18.3203C46.0624 18.6098 45.8283 18.8438 45.539 18.8438Z" fill="white"/>
<path d="M47.6328 16.7499C47.3435 16.7499 47.1094 16.5158 47.1094 16.2265V15.1797C47.1094 14.8904 47.3435 14.6562 47.6328 14.6562C47.9221 14.6562 48.1563 14.8904 48.1563 15.1797V16.2265C48.1563 16.5158 47.9221 16.7499 47.6328 16.7499Z" fill="white"/>
<path d="M57.0547 26.2137C56.7654 26.2137 56.5314 25.9795 56.5314 25.6902C56.5314 25.0548 56.4076 24.4354 56.1632 23.8501C55.4271 22.107 53.7218 20.9794 51.8203 20.9794C49.2225 20.9794 47.1093 23.0926 47.1093 25.6904C47.1093 25.9797 46.8753 26.2138 46.5858 26.2138C46.2965 26.2138 46.0625 25.9797 46.0625 25.6904C46.0625 22.5156 48.646 19.9326 51.8203 19.9326C54.143 19.9326 56.2266 21.3113 57.1293 23.4449C57.4278 24.1615 57.5781 24.916 57.5781 25.6904C57.5781 25.9797 57.344 26.2137 57.0547 26.2137Z" fill="white"/>
<path d="M57.0547 26.2139H46.5858C46.2965 26.2139 46.0625 25.9797 46.0625 25.6904C46.0625 25.4012 46.2965 25.167 46.5858 25.167H57.0547C57.344 25.167 57.5781 25.4012 57.5781 25.6904C57.5781 25.9799 57.344 26.2139 57.0547 26.2139Z" fill="white"/>
<path d="M51.8202 24.1202C51.5309 24.1202 51.2969 23.886 51.2969 23.5967V22.5498C51.2969 22.2605 51.5309 22.0264 51.8202 22.0264C52.1095 22.0264 52.3437 22.2604 52.3437 22.5498V23.5967C52.3437 23.886 52.1095 24.1202 51.8202 24.1202Z" fill="white"/>
<path d="M50.3348 24.7275C50.1998 24.7275 50.0648 24.6754 49.9616 24.5717L49.2285 23.8285C49.0261 23.6225 49.0282 23.2911 49.2336 23.0883C49.4391 22.8854 49.7693 22.8874 49.9748 23.0934L50.7078 23.8366C50.9103 24.0426 50.9082 24.3738 50.7027 24.5768C50.6006 24.6774 50.4678 24.7275 50.3348 24.7275Z" fill="white"/>
<path d="M53.2968 24.7276C53.163 24.7276 53.029 24.6765 52.9269 24.5742C52.7223 24.3697 52.7223 24.0385 52.9269 23.834L53.6701 23.0908C53.8746 22.8864 54.2058 22.8864 54.4101 23.0908C54.6147 23.2954 54.6147 23.6266 54.4101 23.831L53.6669 24.5742C53.5648 24.6765 53.4308 24.7276 53.2968 24.7276Z" fill="white"/>
<path d="M40.3048 20.9375C37.1305 20.9375 34.5469 18.3545 34.5469 15.1798C34.5469 12.0048 37.1305 9.42188 40.3048 9.42188C40.5941 9.42188 40.8282 9.65604 40.8282 9.94533C40.8282 10.2346 40.5941 10.4688 40.3048 10.4688C37.707 10.4688 35.5938 12.582 35.5938 15.1798C35.5938 17.7775 37.707 19.8907 40.3048 19.8907C40.5941 19.8907 40.8282 20.1249 40.8282 20.4142C40.8282 20.7034 40.5941 20.9375 40.3048 20.9375Z" fill="white"/>
<path d="M40.3047 20.9375C40.0154 20.9375 39.7812 20.7034 39.7812 20.4141V9.94533C39.7812 9.65604 40.0154 9.42188 40.3047 9.42188C40.594 9.42188 40.8282 9.65604 40.8282 9.94533V20.4141C40.8282 20.7034 40.594 20.9375 40.3047 20.9375Z" fill="white"/>
<path d="M38.2109 15.7032H37.164C36.8747 15.7032 36.6406 15.469 36.6406 15.1797C36.6406 14.8904 36.8747 14.6562 37.164 14.6562H38.2109C38.5002 14.6562 38.7343 14.8904 38.7343 15.1797C38.7343 15.469 38.5002 15.7032 38.2109 15.7032Z" fill="white"/>
<path d="M38.0862 17.9229C37.9513 17.9229 37.8161 17.8708 37.7129 17.7671C37.5105 17.5611 37.5126 17.2298 37.718 17.0269L38.4613 16.2939C38.6678 16.0909 38.9981 16.093 39.2025 16.299C39.405 16.505 39.4029 16.8362 39.1974 17.0391L38.4541 17.7722C38.3519 17.8728 38.219 17.9229 38.0862 17.9229Z" fill="white"/>
<path d="M38.8292 14.2271C38.6954 14.2271 38.5614 14.1759 38.4591 14.0737L37.7159 13.3305C37.5114 13.1261 37.5114 12.7949 37.7159 12.5904C37.9205 12.3859 38.2517 12.3859 38.456 12.5904L39.1993 13.3336C39.4039 13.5382 39.4039 13.8694 39.1993 14.0738C39.0969 14.1759 38.9632 14.2271 38.8292 14.2271Z" fill="white"/>
<path d="M33.5 67C15.0284 67 0 51.9717 0 33.5C0 15.0279 15.0284 0 33.5 0C51.9717 0 67 15.0279 67 33.5C67 51.9717 51.9717 67 33.5 67ZM33.5 1.04691C15.6049 1.04691 1.04678 15.6055 1.04678 33.5C1.04678 51.3951 15.6049 65.9532 33.5 65.9532C51.3951 65.9532 65.9532 51.3951 65.9532 33.5C65.9532 15.6055 51.3951 1.04691 33.5 1.04691Z" fill="white"/>
<path d="M33.4999 61.7655C24.1007 61.7655 15.3411 57.1078 10.0669 49.3073C6.9048 44.621 5.23438 39.1557 5.23438 33.4999C5.23438 28.8023 6.41513 24.1441 8.6479 20.0286C13.6082 10.9032 23.1314 5.23438 33.4999 5.23438C44.8888 5.23438 55.1132 12.0125 59.5471 22.5027C61.0193 25.9862 61.7655 29.6862 61.7655 33.4999C61.7655 49.0855 49.0855 61.7655 33.4999 61.7655ZM33.4999 6.28129C23.5147 6.28129 14.3444 11.7406 9.56804 20.5281C7.41804 24.4907 6.28116 28.9761 6.28116 33.4999C6.28116 38.946 7.89029 44.2099 10.9338 48.7216C16.0128 56.2335 24.4491 60.7186 33.4999 60.7186C48.5089 60.7186 60.7187 48.5078 60.7187 33.4998C60.7187 29.8271 60 26.2643 58.5821 22.9105C54.3127 12.8083 44.4676 6.28129 33.4999 6.28129Z" fill="white"/>
<path d="M37.0606 55.5108C34.3186 55.5108 31.9784 54.6192 30.2927 52.9335C29.2324 51.8732 28.4862 50.5586 28.0742 49.025C27.9321 48.5056 27.8381 47.9883 27.7962 47.4884C27.6817 46.594 27.6847 45.6002 27.8085 44.5563C28.1141 42.0834 29.0894 39.4928 30.6281 37.0615C31.5278 35.664 32.5869 34.3528 33.7789 33.1608C35.2122 31.728 36.802 30.5022 38.5042 29.5183C41.2676 27.9311 44.1312 27.0928 46.785 27.0928C49.5228 27.0928 51.862 27.9858 53.5509 29.6752C54.7317 30.8549 55.5148 32.3413 55.8809 34.0941C56.9072 38.8588 54.6254 44.8865 50.0647 49.4471C46.2688 53.2433 41.4076 55.5108 37.0606 55.5108ZM46.785 28.1397C44.314 28.1397 41.6305 28.9299 39.0266 30.4256C37.4041 31.3631 35.8869 32.5327 34.5191 33.9011C33.3803 35.0405 32.3681 36.2929 31.5113 37.625C30.0566 39.9243 29.1345 42.3656 28.8471 44.6823C28.7346 45.6392 28.7306 46.5469 28.8369 47.3782C28.8767 47.8372 28.9586 48.2911 29.0843 48.751C29.4493 50.1068 30.1046 51.265 31.0329 52.1933C32.5184 53.6788 34.6019 54.464 37.0606 54.464C41.1356 54.464 45.7208 52.3109 49.3247 48.7072C53.6399 44.3918 55.8113 38.7413 54.8565 34.3115C54.5324 32.7587 53.8443 31.4491 52.8107 30.4154C51.3223 28.9264 49.2387 28.1397 46.785 28.1397Z" fill="white"/>
<path d="M36.994 57.7029C35.5094 57.7029 34.0843 57.4656 32.8064 56.9381C30.6442 56.0447 28.0658 53.9242 28.0566 48.8903L29.1036 48.8678C29.1097 52.4153 30.5287 54.8648 33.2062 55.9709C38.047 57.9707 45.5253 55.2603 49.2108 51.5758C55.0198 45.766 57.2168 41.9014 54.8808 34.3561C54.7949 34.0802 54.9492 33.7866 55.2264 33.7013C55.5034 33.617 55.7959 33.7707 55.8807 34.0464C58.3618 42.0591 55.945 46.3221 49.9512 52.316C46.9147 55.3515 41.6651 57.7029 36.994 57.7029Z" fill="white"/>
<path d="M49.642 42.241C49.5081 42.241 49.3742 42.1899 49.2719 42.0878L41.8702 34.6859C41.6657 34.4819 41.6657 34.1507 41.8702 33.9464C42.0747 33.7418 42.4059 33.7418 42.6103 33.9464L50.0121 41.3476C50.2166 41.5521 50.2166 41.8833 50.0121 42.0878C49.9099 42.1899 49.7759 42.241 49.642 42.241Z" fill="white"/>
<path d="M45.9475 45.9482C45.8137 45.9482 45.6797 45.897 45.5776 45.7948L38.1768 38.393C37.9723 38.1886 37.9723 37.8574 38.1768 37.6529C38.3813 37.4484 38.7125 37.4484 38.917 37.6529L46.3176 45.0547C46.5222 45.2592 46.5222 45.5904 46.3176 45.7948C46.2155 45.897 46.0815 45.9482 45.9475 45.9482Z" fill="white"/>
<path d="M42.2406 49.643C42.1068 49.643 41.9728 49.5918 41.8706 49.4896L34.4698 42.0879C34.2653 41.8833 34.2653 41.5521 34.4698 41.3477C34.6744 41.1433 35.0056 41.1431 35.2099 41.3477L42.6107 48.7494C42.8153 48.954 42.8153 49.2852 42.6107 49.4896C42.5086 49.5918 42.3746 49.643 42.2406 49.643Z" fill="white"/>
<path d="M31.071 37.8654C30.9372 37.8654 30.8032 37.8142 30.7009 37.712L23.1846 30.2065C22.9801 30.0021 22.9801 29.6709 23.1846 29.4658C23.3891 29.2612 23.7203 29.2618 23.9248 29.4653L31.441 36.9718C31.6454 37.1763 31.6454 37.5075 31.441 37.7118C31.3388 37.8142 31.205 37.8654 31.071 37.8654Z" fill="white"/>
<path d="M20.4142 31.4061C20.1955 31.4061 19.991 31.2676 19.9174 31.0484C19.8264 30.7739 19.9747 30.4775 20.2486 30.3863L23.3892 29.3396C23.6643 29.248 23.9597 29.3963 24.0518 29.6702C24.1428 29.9447 23.9944 30.2411 23.7206 30.3323L20.58 31.379C20.5247 31.3974 20.4694 31.4061 20.4142 31.4061Z" fill="white"/>
<path d="M29.6192 40.5859C29.4852 40.5859 29.3523 40.5358 29.2502 40.4336L20.044 31.2529C19.8395 31.0483 19.8395 30.7171 20.044 30.5127C20.2485 30.3083 20.5797 30.3083 20.7841 30.5127L29.9883 39.6912C30.1937 39.8958 30.1938 40.227 29.9904 40.4314C29.8881 40.5349 29.7532 40.5859 29.6192 40.5859Z" fill="white"/>
<path d="M19.3673 35.5939C19.175 35.5939 18.99 35.4876 18.8981 35.3036C18.7702 35.044 18.8755 34.7291 19.1352 34.6014L22.6357 32.8674C22.8933 32.7407 23.2071 32.8444 23.337 33.1042C23.4648 33.3634 23.3594 33.6777 23.0999 33.8059L19.5994 35.5398C19.5247 35.5766 19.446 35.5939 19.3673 35.5939Z" fill="white"/>
<path d="M28.6366 43.4678C28.5169 43.4678 28.3963 43.4269 28.2982 43.3432L19.0277 35.4691C18.8078 35.2819 18.7814 34.9518 18.9684 34.731C19.1566 34.5116 19.4846 34.485 19.7066 34.6716L28.9751 42.5447C29.1959 42.7318 29.2224 43.063 29.0353 43.2828C28.9321 43.4045 28.7849 43.4678 28.6366 43.4678Z" fill="white"/>
<path d="M28.2511 46.0628C28.1459 46.0628 28.0406 46.0321 27.9485 45.9668L19.0644 39.6854C18.8292 39.5189 18.773 39.1926 18.9396 38.9556C19.1083 38.7204 19.4344 38.6651 19.6696 38.8309L28.5537 45.1121C28.7889 45.2787 28.8451 45.6049 28.6785 45.842C28.5762 45.9851 28.4147 46.0628 28.2511 46.0628Z" fill="white"/>
<path d="M19.3673 39.7812C19.2323 39.7812 19.0963 39.729 18.9941 39.6247C18.7916 39.4193 18.7937 39.0871 19.0002 38.8846L21.2841 36.6386C21.4906 36.4361 21.8218 36.4382 22.0243 36.6447C22.2267 36.8513 22.2246 37.1825 22.0181 37.3848L19.7343 39.6308C19.632 39.731 19.5002 39.7812 19.3673 39.7812Z" fill="white"/>
<path d="M28.4626 49.1132C28.3748 49.1132 28.2868 49.0906 28.205 49.0457L19.1205 43.9115C19.0796 43.8879 19.0417 43.8594 19.0081 43.8257C18.9089 43.7275 18.8486 43.5884 18.8496 43.4484C18.8507 43.3084 18.9017 43.1704 19.0009 43.0723L21.4657 40.6462C21.6723 40.4439 22.0035 40.4449 22.2058 40.6524C22.4083 40.8578 22.4062 41.1892 22.1998 41.3926L20.2267 43.3339L28.7202 48.1337C28.9718 48.2759 29.0607 48.5948 28.9187 48.8473C28.8225 49.017 28.6447 49.1132 28.4626 49.1132Z" fill="white"/>
<path d="M28.993 52.4827C28.9133 52.4827 28.8325 52.4642 28.7568 52.4253L20.1784 48.0998C20.0291 48.0242 19.9238 47.8811 19.8972 47.7154C19.8706 47.5488 19.9257 47.3811 20.0445 47.2626L22.3294 44.9807C22.5339 44.7772 22.8651 44.7761 23.0696 44.9807C23.2742 45.186 23.2742 45.5173 23.0696 45.7218L21.2969 47.4915L29.2292 51.4909C29.4868 51.6218 29.5901 51.9366 29.4603 52.1942C29.3681 52.3764 29.1842 52.4827 28.993 52.4827Z" fill="white"/>
<path d="M21.461 27.2188C18.8632 27.2188 16.75 25.1056 16.75 22.5078C16.75 19.9101 18.8632 17.7969 21.461 17.7969C23.5321 17.7969 25.3397 19.1264 25.9602 21.1056C26.1003 21.5504 26.1718 22.0222 26.1718 22.5078C26.1719 25.1056 24.0587 27.2188 21.461 27.2188ZM21.461 18.8438C19.4407 18.8438 17.7969 20.4878 17.7969 22.508C17.7969 24.5281 19.4407 26.172 21.461 26.172C23.4811 26.172 25.125 24.5281 25.125 22.508C25.125 22.1296 25.0699 21.7636 24.9615 21.4202C24.4779 19.8784 23.0722 18.8438 21.461 18.8438Z" fill="white"/>
<path d="M37.1642 28.2656C36.0233 28.2656 34.9949 27.506 34.6636 26.4187C34.5879 26.1891 34.5469 25.9259 34.5469 25.6484C34.5469 24.2053 35.7206 23.0312 37.164 23.0312C38.6076 23.0312 39.7812 24.2053 39.7812 25.6484C39.7813 27.0915 38.6078 28.2656 37.1642 28.2656ZM37.1642 24.0782C36.2984 24.0782 35.5939 24.7826 35.5939 25.6485C35.5939 25.8142 35.6164 25.9665 35.6615 26.1014C35.8638 26.7643 36.4804 27.2188 37.1643 27.2188C38.0302 27.2188 38.7347 26.5143 38.7347 25.6484C38.7347 24.7825 38.0301 24.0782 37.1642 24.0782Z" fill="white"/>
<path d="M13.0859 25.1251C11.6423 25.1251 10.4688 23.9508 10.4688 22.5079C10.4688 21.9737 10.6232 21.4661 10.9165 21.0393C11.4051 20.3206 12.217 19.8906 13.0859 19.8906C14.5294 19.8906 15.703 21.0647 15.703 22.5078C15.7029 23.9508 14.5294 25.1251 13.0859 25.1251ZM13.0859 20.9375C12.5635 20.9375 12.0758 21.1962 11.7803 21.6297C11.6065 21.8832 11.5155 22.1864 11.5155 22.5079C11.5155 23.3738 12.22 24.0781 13.0859 24.0781C13.9518 24.0781 14.6563 23.3738 14.6563 22.5079C14.6561 21.6419 13.9517 20.9375 13.0859 20.9375Z" fill="white"/>
<path d="M29.8048 31.4062C27.7846 31.4062 26.1406 29.7623 26.1406 27.7422C26.1406 25.7221 27.7846 24.0781 29.8048 24.0781C29.8916 24.0781 29.9622 24.0807 30.0512 24.0975C31.3792 24.1487 32.6407 25.0217 33.1866 26.3134C33.3748 26.7648 33.4687 27.2443 33.4687 27.7422C33.4689 29.7623 31.8249 31.4062 29.8048 31.4062ZM29.8048 25.125C28.3612 25.125 27.1877 26.2991 27.1877 27.7422C27.1877 29.1853 28.3612 30.3593 29.8048 30.3593C31.2483 30.3593 32.422 29.1853 32.422 27.7422C32.422 27.3828 32.3545 27.0383 32.2216 26.7183C31.833 25.8003 30.9324 25.1776 29.9295 25.1347L29.8048 25.125Z" fill="white"/>
<path d="M23.0312 16.75C21.2994 16.75 19.8906 15.3412 19.8906 13.6094C19.8906 11.8775 21.2994 10.4688 23.0312 10.4688C24.7632 10.4688 26.1718 11.8775 26.1718 13.6094C26.1718 15.3412 24.7631 16.75 23.0312 16.75ZM23.0312 11.5155C21.8771 11.5155 20.9375 12.4545 20.9375 13.6094C20.9375 14.764 21.8771 15.703 23.0312 15.703C24.1854 15.703 25.1251 14.764 25.1251 13.6094C25.1249 12.4545 24.1854 11.5155 23.0312 11.5155Z" fill="white"/>
<path d="M30.3594 23.0312C30.2459 23.0312 30.1447 23.0302 30.0312 23.0178C28.8841 22.8932 27.9026 22.1648 27.4682 21.1168C27.3057 20.7432 27.2188 20.3164 27.2188 19.8906C27.2188 18.1588 28.6275 16.75 30.3594 16.75C32.0912 16.75 33.5 18.1588 33.5 19.8906C33.5 21.6224 32.0912 23.0312 30.3594 23.0312ZM30.3594 17.7969C29.2052 17.7969 28.2657 18.7359 28.2657 19.8906C28.2657 20.1743 28.323 20.4569 28.4322 20.7085C28.7236 21.4108 29.3779 21.8938 30.1437 21.9772C30.2173 21.9849 30.2797 21.9839 30.3594 21.9844C31.5135 21.9844 32.4532 21.0454 32.4532 19.8907C32.4532 18.736 31.5135 17.7969 30.3594 17.7969Z" fill="white"/>
<path d="M13.6094 34.5469C11.2999 34.5469 9.42188 32.6682 9.42188 30.3594C9.42188 28.0505 11.2999 26.1719 13.6094 26.1719C15.9189 26.1719 17.7969 28.0505 17.7969 30.3594C17.7969 32.6682 15.9189 34.5469 13.6094 34.5469ZM13.6094 27.2188C11.8775 27.2188 10.4688 28.6275 10.4688 30.3594C10.4688 32.0912 11.8777 33.5 13.6094 33.5C15.3412 33.5 16.75 32.0912 16.75 30.3594C16.75 28.6275 15.3412 27.2188 13.6094 27.2188Z" fill="white"/>
<path d="M19.3672 55.4844C18.5013 55.4844 17.7969 54.78 17.7969 53.9141C17.7969 53.0482 18.5012 52.3438 19.3672 52.3438C20.2332 52.3438 20.9375 53.0482 20.9375 53.9141C20.9375 54.78 20.2332 55.4844 19.3672 55.4844ZM19.3672 53.3907C19.0789 53.3907 18.8438 53.6257 18.8438 53.9141C18.8438 54.2024 19.0789 54.4376 19.3672 54.4376C19.6555 54.4376 19.8907 54.2024 19.8907 53.9141C19.8907 53.6257 19.6555 53.3907 19.3672 53.3907Z" fill="white"/>
<path d="M16.2265 52.3436C15.3606 52.3436 14.6562 51.6393 14.6562 50.7734C14.6562 49.9076 15.3606 49.2031 16.2265 49.2031C17.0924 49.2031 17.7969 49.9076 17.7969 50.7734C17.7967 51.6393 17.0924 52.3436 16.2265 52.3436ZM16.2265 50.2498C15.9382 50.2498 15.703 50.485 15.703 50.7732C15.703 51.0615 15.9382 51.2967 16.2265 51.2967C16.5147 51.2967 16.7499 51.0615 16.7499 50.7732C16.7499 50.485 16.5147 50.2498 16.2265 50.2498Z" fill="white"/>
<path d="M13.0859 49.2031C12.5767 49.2031 12.0789 48.9403 11.7865 48.5171C11.6086 48.2595 11.5156 47.9539 11.5156 47.6327C11.5156 46.7669 12.2201 46.0625 13.086 46.0625C13.595 46.0625 14.093 46.3253 14.3854 46.7485C14.5632 47.0061 14.6564 47.3117 14.6564 47.6327C14.6561 48.4987 13.9517 49.2031 13.0859 49.2031ZM13.0859 47.1093C12.7975 47.1093 12.5624 47.3445 12.5624 47.6327C12.5624 47.7433 12.5911 47.8393 12.6483 47.9222C12.7465 48.0643 12.9182 48.1562 13.0859 48.1562C13.3741 48.1562 13.6093 47.9211 13.6093 47.6327C13.6093 47.5223 13.5806 47.4263 13.5235 47.3434C13.4252 47.2013 13.2534 47.1093 13.0859 47.1093Z" fill="white"/>
<path d="M12.0391 45.0156C11.1732 45.0156 10.4688 44.3112 10.4688 43.4452C10.4688 42.5793 11.1731 41.875 12.0391 41.875C12.905 41.875 13.6094 42.5793 13.6094 43.4452C13.6094 44.3112 12.905 45.0156 12.0391 45.0156ZM12.0391 42.9217C11.7507 42.9217 11.5157 43.1569 11.5157 43.4451C11.5157 43.7334 11.7507 43.9686 12.0391 43.9686C12.3274 43.9686 12.5626 43.7334 12.5626 43.4451C12.5626 43.1569 12.3274 42.9217 12.0391 42.9217Z" fill="white"/>
<path d="M16.2265 43.9266C15.3606 43.9266 14.6562 43.2222 14.6562 42.3564C14.6562 41.4904 15.3606 40.7861 16.2265 40.7861C17.0924 40.7861 17.7969 41.4904 17.7969 42.3564C17.7967 43.2222 17.0924 43.9266 16.2265 43.9266ZM16.2265 41.8329C15.9331 41.8329 15.703 42.063 15.703 42.3564C15.703 42.6457 15.9382 42.8797 16.2265 42.8797C16.5147 42.8797 16.7499 42.6457 16.7499 42.3564C16.7499 42.063 16.5198 41.8329 16.2265 41.8329Z" fill="white"/>
<path d="M16.2265 38.7344C15.3606 38.7344 14.6562 38.0299 14.6562 37.1641C14.6562 36.2982 15.3606 35.5938 16.2265 35.5938C17.0924 35.5938 17.7969 36.2982 17.7969 37.1641C17.7967 38.0299 17.0924 38.7344 16.2265 38.7344ZM16.2265 36.6405C15.9382 36.6405 15.703 36.8757 15.703 37.164C15.703 37.4522 15.9382 37.6873 16.2265 37.6873C16.5147 37.6873 16.7499 37.4522 16.7499 37.164C16.7499 36.8757 16.5147 36.6405 16.2265 36.6405Z" fill="white"/>
<path d="M8.89836 39.7812C8.03244 39.7812 7.32812 39.0768 7.32812 38.2109C7.32812 37.3449 8.03244 36.6406 8.89836 36.6406C9.76428 36.6406 10.4687 37.3449 10.4687 38.2109C10.4687 39.0768 9.76441 39.7812 8.89836 39.7812ZM8.89836 37.6874C8.61011 37.6874 8.37491 37.9226 8.37491 38.2109C8.37491 38.4992 8.61011 38.7343 8.89836 38.7343C9.18661 38.7343 9.42182 38.4992 9.42182 38.2109C9.42195 37.9226 9.18674 37.6874 8.89836 37.6874Z" fill="white"/>
<path d="M13.086 40.8281C12.2201 40.8281 11.5156 40.1238 11.5156 39.2579C11.5156 38.3919 12.2201 37.6875 13.086 37.6875C13.9519 37.6875 14.6564 38.3919 14.6564 39.2579C14.6564 40.1238 13.9518 40.8281 13.086 40.8281ZM13.086 38.7344C12.7976 38.7344 12.5625 38.9695 12.5625 39.2579C12.5625 39.5461 12.7976 39.7813 13.086 39.7813C13.3742 39.7813 13.6094 39.5461 13.6094 39.2579C13.6093 38.9695 13.3742 38.7344 13.086 38.7344Z" fill="white"/>
<path d="M17.2736 48.1561C16.6387 48.1561 16.0713 47.7798 15.8279 47.1961C15.7452 46.9968 15.7031 46.7923 15.7031 46.5859C15.7031 45.7199 16.4076 45.0156 17.2735 45.0156C17.6864 45.0156 18.0678 45.1699 18.3766 45.4623C18.6895 45.7925 18.8437 46.1728 18.8437 46.5859C18.8439 47.4517 18.1394 48.1561 17.2736 48.1561ZM17.2736 46.0624C16.9852 46.0624 16.7502 46.2976 16.7502 46.5859C16.7502 46.6542 16.7644 46.7228 16.794 46.7944C16.8727 46.9825 17.066 47.1092 17.2736 47.1092C17.5619 47.1092 17.7971 46.8741 17.7971 46.5859C17.7971 46.4417 17.745 46.3159 17.6365 46.2024C17.5434 46.1156 17.4177 46.0624 17.2736 46.0624Z" fill="white"/>
</svg>
