<svg width="83" height="83" viewBox="0 0 83 83" fill="none" xmlns="http://www.w3.org/2000/svg">
<g clip-path="url(#clip0)">
<path d="M32.9659 73.3534C15.3744 68.6398 4.93419 50.557 9.6478 32.9656C14.3614 15.3741 32.4443 4.93405 50.0358 9.64766C67.6276 14.3614 78.0673 32.4442 73.3537 50.0355C68.6401 67.6268 50.5577 78.0672 32.9659 73.3534Z" fill="#F6F8FA"/>
<path d="M49.4939 11.6701C66.7465 16.293 77.1097 33.7742 73.0571 51.0399C73.1576 50.706 73.2629 50.3744 73.3537 50.0356C78.0673 32.4442 67.6276 14.3614 50.0358 9.64766C32.4443 4.93405 14.3614 15.3743 9.6478 32.9656C9.55703 33.3043 9.48288 33.6443 9.40255 33.9836C14.5258 17.0047 32.2412 7.0473 49.4939 11.6701Z" fill="white"/>
<g opacity="0.2">
<path opacity="0.2" d="M33.5081 71.3306C16.2554 66.7078 5.89221 49.2266 9.94476 31.9609C9.84466 32.295 9.7389 32.6265 9.64812 32.9652C4.93451 50.5567 15.3747 68.6395 32.9662 73.3531C50.558 78.0668 68.6404 67.6266 73.354 50.0352C73.4448 49.6964 73.5195 49.3566 73.5993 49.017C68.4762 65.9959 50.7608 75.9535 33.5081 71.3306Z" fill="black"/>
</g>
<path d="M34.3194 68.2963C19.5207 64.331 10.7378 49.116 14.7026 34.3192C18.6674 19.5224 33.881 10.7373 48.6797 14.7026C63.4776 18.6677 72.2611 33.883 68.2964 48.6796C64.3316 63.4763 49.1172 72.2613 34.3194 68.2963Z" fill="white"/>
<g opacity="0.1">
<path opacity="0.1" d="M48.1379 16.725C62.5964 20.5991 71.3061 35.2136 67.9998 49.6839C68.1026 49.3517 68.2056 49.0184 68.2964 48.6796C72.2612 33.8828 63.4776 18.6677 48.6797 14.7026C33.881 10.7373 18.6674 19.5225 14.7026 34.3192C14.6118 34.658 14.5345 34.9982 14.4574 35.3372C18.8298 21.1525 33.6788 12.8507 48.1379 16.725Z" fill="black"/>
</g>
<g opacity="0.5">
<path opacity="0.5" d="M34.8623 66.2743C20.4033 62.4001 11.6945 47.7859 15.0003 33.3154C14.8974 33.6477 14.7944 33.981 14.7036 34.3198C10.7388 49.1166 19.5226 64.3318 34.3204 68.2968C49.1186 72.262 64.3326 63.477 68.2974 48.6802C68.3882 48.3414 68.4656 48.0013 68.5427 47.6621C64.1709 61.8469 49.3214 70.1486 34.8623 66.2743Z" fill="white"/>
</g>
<path d="M24.836 32.3684L31.2354 25.2019L32.8481 27.9995L28.1345 32.8246L24.836 32.3684Z" fill="#A0D468"/>
<g opacity="0.5">
<path opacity="0.5" d="M30.9646 26.2133L31.8474 27.7453L32.3849 27.1971L31.2355 25.2021L24.836 32.3685L25.3994 32.4464L30.9646 26.2133Z" fill="white"/>
</g>
<path d="M27.9082 32.7644C26.4558 32.7658 25.0633 33.1082 23.8199 33.826C18.5626 36.8605 17.8638 45.4961 22.2615 53.1118C25.4966 58.7149 30.5955 62.216 35.1621 62.4425L35.1592 62.4533C27.2742 62.7569 23.9178 59.8741 19.5202 52.2586C15.1228 44.642 16.5268 29.737 27.9082 32.7644Z" fill="#965353"/>
<g opacity="0.2">
<path opacity="0.2" d="M27.9082 32.7644C26.4558 32.7658 25.0633 33.1082 23.8199 33.826C18.5626 36.8605 17.8638 45.4961 22.2615 53.1118C25.4966 58.7149 30.5955 62.216 35.1621 62.4425L35.1592 62.4533C27.2742 62.7569 23.9178 59.8741 19.5202 52.2586C15.1228 44.642 16.5268 29.737 27.9082 32.7644Z" fill="black"/>
</g>
<path d="M27.9081 32.7646C28.3861 32.7625 28.8853 32.7989 29.3713 32.8857C30.2709 33.0081 31.1885 33.2647 32.099 33.6272C34.3092 34.5231 36.4941 36.0738 38.4173 38.1598C39.4714 39.3207 40.4504 40.6446 41.3015 42.1195C42.3229 43.8886 43.0618 45.7017 43.5446 47.5002C44.3373 50.4867 44.4028 53.398 43.7443 55.8558C43.0968 58.2723 41.7426 60.2506 39.7426 61.4049C38.3582 62.2046 36.7956 62.5342 35.1621 62.4425C30.5956 62.216 25.4966 58.7148 22.2615 53.1119C17.8639 45.4962 18.5626 36.8606 23.8199 33.8261C25.0633 33.1082 26.4557 32.766 27.9081 32.7646Z" fill="#965353"/>
<g opacity="0.1">
<path opacity="0.1" d="M27.9081 32.7646C28.3861 32.7625 28.8853 32.7989 29.3713 32.8857C30.2709 33.0081 31.1885 33.2647 32.099 33.6272C34.3092 34.5231 36.4941 36.0738 38.4173 38.1598C39.4714 39.3207 40.4504 40.6446 41.3015 42.1195C42.3229 43.8886 43.0618 45.7017 43.5446 47.5002C44.3373 50.4867 44.4028 53.398 43.7443 55.8558C43.0968 58.2723 41.7426 60.2506 39.7426 61.4049C38.3582 62.2046 36.7956 62.5342 35.1621 62.4425C30.5956 62.216 25.4966 58.7148 22.2615 53.1119C17.8639 45.4962 18.5626 36.8606 23.8199 33.8261C25.0633 33.1082 26.4557 32.766 27.9081 32.7646Z" fill="white"/>
</g>
<g opacity="0.2">
<path opacity="0.2" d="M35.1637 62.4421C36.7971 62.5338 38.3598 62.2042 39.7441 61.4045C41.7443 60.2502 43.0983 58.2719 43.7458 55.8553C43.8365 55.5167 43.9105 55.1672 43.9736 54.8115C43.248 56.7805 42.008 58.3884 40.2859 59.3821C38.9015 60.1818 37.3389 60.5114 35.7054 60.4198C31.1388 60.1933 26.0399 56.692 22.8049 51.0889C20.3361 46.8131 19.474 42.2171 20.1226 38.4696C18.6738 42.4939 19.3264 48.0254 22.2629 53.1115C25.498 58.7145 30.5971 62.2157 35.1637 62.4421Z" fill="black"/>
</g>
<g opacity="0.3">
<path opacity="0.3" d="M23.2797 35.8481C24.5231 35.1303 25.9156 34.7878 27.3681 34.7864C27.846 34.7843 28.3452 34.8207 28.8312 34.9076C29.7308 35.0301 30.6484 35.2866 31.5589 35.649C33.7691 36.545 35.9541 38.0956 37.8772 40.1817C38.9313 41.3425 39.9103 42.6666 40.7614 44.1413C41.7828 45.9105 42.5217 47.7237 43.0045 49.5222C43.688 52.0963 43.8275 54.6135 43.4321 56.8338C43.5495 56.516 43.6562 56.191 43.7462 55.8553C44.4048 53.3974 44.3392 50.4863 43.5465 47.4997C43.0637 45.7012 42.325 43.8882 41.3034 42.119C40.4525 40.6442 39.4734 39.3204 38.4192 38.1593C36.4961 36.0733 34.3112 34.5227 32.1009 33.6267C31.1905 33.2641 30.2728 33.0077 29.3732 32.8853C28.8872 32.7984 28.388 32.762 27.9101 32.7641C26.4576 32.7655 25.0651 33.1079 23.8217 33.8257C21.5165 35.1567 20.0881 37.5649 19.5811 40.4919C20.3021 38.491 21.533 36.8565 23.2797 35.8481Z" fill="white"/>
</g>
<path d="M26.4517 22.8369C26.3027 23.3929 25.7255 23.726 25.1695 23.5771C24.6136 23.4281 24.2804 22.8509 24.4293 22.295C24.5783 21.7389 25.1556 21.4058 25.7114 21.5547C26.2675 21.7037 26.6007 22.2808 26.4517 22.8369Z" fill="#A0D468"/>
<path d="M29.0152 21.356C28.4592 21.207 28.126 20.6298 28.2749 20.0738C28.4239 19.5178 29.0013 19.1846 29.5571 19.3335C30.113 19.4825 30.4464 20.0598 30.2974 20.6157C30.1484 21.1717 29.571 21.5049 29.0152 21.356Z" fill="#A0D468"/>
<path d="M33.4758 19.1148C33.2839 19.183 33.0752 19.1916 32.863 19.1347C32.3069 18.9857 31.9738 18.4085 32.1227 17.8525C32.2148 17.5088 32.4807 17.2436 32.792 17.1323C32.9838 17.0641 33.1926 17.0555 33.4049 17.1124C33.9609 17.2613 34.294 17.8386 34.1451 18.3945C34.053 18.7381 33.7872 19.0034 33.4758 19.1148Z" fill="#A0D468"/>
<path d="M33.5852 23.3508C33.344 23.4809 33.0711 23.5273 32.7887 23.4516C32.2327 23.3026 31.8995 22.7254 32.0485 22.1695C32.1596 21.7548 32.5098 21.459 32.9139 21.4044C33.0499 21.3868 33.1884 21.3911 33.3306 21.4292C33.8866 21.5782 34.2198 22.1555 34.0708 22.7114C33.9949 22.9949 33.8194 23.2071 33.5852 23.3508Z" fill="#A0D468"/>
<path d="M37.1461 23.5347C36.5901 23.3858 36.2569 22.8085 36.4059 22.2526C36.5549 21.6966 37.1321 21.3633 37.688 21.5122C38.2538 21.6639 38.5772 22.2385 38.4283 22.7944C38.2793 23.3504 37.7119 23.6863 37.1461 23.5347Z" fill="#A0D468"/>
<path d="M44.3286 16.7886C44.1797 17.3445 43.6024 17.6778 43.0466 17.5289C42.4905 17.3799 42.1573 16.8027 42.3063 16.2467C42.4553 15.6907 43.0325 15.3574 43.5885 15.5064C44.1444 15.6555 44.4776 16.2327 44.3286 16.7886Z" fill="#A0D468"/>
<g opacity="0.5">
<path opacity="0.5" d="M43.3175 16.5177C43.6858 16.6163 43.9387 16.9085 44.0372 17.2524C44.1676 17.1255 44.2784 16.9762 44.3286 16.7886C44.4776 16.2326 44.1443 15.6554 43.5885 15.5064C43.0324 15.3574 42.4553 15.6907 42.3063 16.2467C42.256 16.4343 42.2774 16.619 42.3268 16.7941C42.584 16.5456 42.9492 16.419 43.3175 16.5177Z" fill="white"/>
</g>
<path d="M40.9527 21.3018C40.3967 21.1528 40.0636 20.5756 40.2125 20.0196C40.3615 19.4637 40.9388 19.1304 41.4946 19.2793C42.0507 19.4283 42.3839 20.0056 42.2349 20.5615C42.0859 21.1175 41.5088 21.4508 40.9527 21.3018Z" fill="#A0D468"/>
<path d="M42.1617 24.8775C41.6057 24.7285 41.2726 24.1513 41.4215 23.5953C41.5705 23.0394 42.1478 22.7061 42.7036 22.855C43.2597 23.004 43.5929 23.5812 43.4439 24.1372C43.295 24.6932 42.7178 25.0265 42.1617 24.8775Z" fill="#A0D468"/>
<path d="M49.3581 62.5717C48.7971 64.6653 47.0511 66.1258 45.0249 66.4073C44.3503 66.4975 43.645 66.4598 42.9473 66.2729L45.6052 56.3534L45.6568 56.1609C48.4578 56.9114 50.1059 59.781 49.3581 62.5717Z" fill="#ED5565"/>
<g opacity="0.2">
<path opacity="0.2" d="M45.0255 66.4083C47.0517 66.1267 48.7978 64.6661 49.3587 62.5726C49.3984 62.4245 49.4046 62.277 49.4311 62.1285C48.7285 63.9132 47.1324 65.1419 45.2964 65.3971C44.6219 65.4873 43.9165 65.4496 43.2188 65.2627L42.9479 66.2738C43.6454 66.4607 44.3509 66.4984 45.0255 66.4083Z" fill="black"/>
</g>
<g opacity="0.3">
<path opacity="0.3" d="M49.1595 63.1388C49.2324 62.954 49.3054 62.7683 49.3581 62.5717C50.1059 59.781 48.4579 56.9114 45.6568 56.1609L45.6052 56.3534L45.3859 57.1721C48.0383 57.8828 49.63 60.4938 49.1595 63.1388Z" fill="white"/>
</g>
<path d="M57.0446 56.4597C58.4856 58.9699 57.6293 62.1656 55.1263 63.619L49.8851 54.5413C52.3955 53.1003 55.591 53.9566 57.0446 56.4597Z" fill="#ED5565"/>
<g opacity="0.2">
<path opacity="0.2" d="M57.6518 59.9173C57.2388 61.0079 56.485 61.9765 55.3971 62.6081L50.5641 54.2376C50.3353 54.3287 50.1053 54.4152 49.8851 54.5414L55.1263 63.6192C56.5415 62.7971 57.4069 61.4138 57.6518 59.9173Z" fill="black"/>
</g>
<g opacity="0.3">
<path opacity="0.3" d="M56.7722 57.4708C57.3985 58.5616 57.5671 59.7773 57.3794 60.9284C57.9156 59.5099 57.8578 57.8792 57.0431 56.4597C55.5895 53.9566 52.394 53.1004 49.8836 54.5413L50.2916 55.2485C52.6747 54.2964 55.4461 55.1872 56.7722 57.4708Z" fill="white"/>
</g>
<path d="M62.4909 54.1694L52.3789 51.4598C53.1267 48.6691 55.9991 47.0108 58.7896 47.7585C61.5805 48.5063 63.2387 51.3786 62.4909 54.1694Z" fill="#ED5565"/>
<g opacity="0.2">
<path opacity="0.2" d="M62.6596 53.1304L52.752 50.4756C52.5978 50.7846 52.4718 51.1127 52.3789 51.4594L62.4908 54.1688C62.5837 53.8222 62.6386 53.4751 62.6596 53.1304Z" fill="black"/>
</g>
<g opacity="0.3">
<path opacity="0.3" d="M58.5187 48.7697C60.9628 49.4246 62.5383 51.7096 62.3887 54.142L62.4909 54.1694C63.2387 51.3786 61.5803 48.5063 58.7896 47.7585C55.9989 47.0107 53.1267 48.6691 52.3789 51.4598L52.4811 51.4872C53.5678 49.3061 56.0746 48.1149 58.5187 48.7697Z" fill="white"/>
</g>
<path d="M50.1592 47.6133C49.8613 48.7252 48.7073 49.3919 47.5948 49.0939C46.4825 48.7958 45.8165 47.6414 46.1144 46.5295C46.3555 45.63 47.1607 45.0105 48.0579 44.98C48.2558 44.9684 48.4664 44.992 48.6787 45.0489C49.7913 45.347 50.4572 46.5014 50.1592 47.6133Z" fill="#FFCE54"/>
<path d="M48.4512 42.5389C48.0468 42.5924 47.6306 42.5677 47.206 42.4539C45.5272 42.0041 44.5354 40.2863 44.9852 38.6076C45.4321 36.9396 47.1529 35.937 48.8316 36.3869C50.5104 36.8367 51.4993 38.5654 51.0524 40.2333C51.0389 40.2835 51.028 40.3241 51.0044 40.3728C50.634 41.552 49.6222 42.3753 48.4512 42.5389Z" fill="#FFCE54"/>
<g opacity="0.5">
<path opacity="0.5" d="M48.5607 37.3985C50.0642 37.8013 51.0053 39.2305 50.8664 40.7226C50.9173 40.6092 50.9662 40.4943 51.0044 40.3733C51.028 40.3246 51.0389 40.284 51.0524 40.2338C51.4993 38.5658 50.5104 36.8372 48.8316 36.3873C47.1529 35.9375 45.4321 36.9402 44.9852 38.6081C44.9386 38.7819 44.9163 38.9558 44.9003 39.1282C45.5247 37.7641 47.0558 36.9952 48.5607 37.3985Z" fill="white"/>
</g>
<g opacity="0.2">
<path opacity="0.2" d="M47.488 41.4022C45.9845 40.9993 45.0434 39.5702 45.1823 38.078C45.1314 38.1914 45.0825 38.3063 45.0443 38.4274C45.0206 38.4761 45.0098 38.5166 44.9963 38.567C44.5494 40.2349 45.5383 41.9636 47.217 42.4134C48.8958 42.8632 50.6166 41.8606 51.0635 40.1927C51.11 40.0189 51.1322 39.8449 51.1484 39.6724C50.5241 41.0367 48.993 41.8054 47.488 41.4022Z" fill="black"/>
</g>
<path d="M57.9867 42.6668C57.6128 44.0621 56.1766 44.8912 54.7813 44.5174C53.386 44.1435 52.5568 42.7073 52.9307 41.312C52.9551 41.2212 52.9767 41.1402 53.011 41.0521C53.3614 40.1489 54.1699 39.5199 55.091 39.3983C55.4292 39.3482 55.7925 39.3692 56.1361 39.4613C57.5314 39.8352 58.3606 41.2714 57.9867 42.6668Z" fill="#FFCE54"/>
<g opacity="0.5">
<path opacity="0.5" d="M54.8199 40.4094C55.1582 40.3593 55.5214 40.3804 55.865 40.4725C57.0871 40.8 57.8749 41.9424 57.8004 43.1586C57.8773 43.0035 57.9404 42.8394 57.9867 42.6666C58.3606 41.2714 57.5314 39.8352 56.1361 39.4613C55.7924 39.3692 55.4292 39.3482 55.091 39.3983C54.1699 39.5199 53.3615 40.1489 53.011 41.0521C52.9767 41.1402 52.9551 41.2212 52.9307 41.312C52.881 41.4977 52.8558 41.6846 52.8469 41.8696C53.234 41.0768 53.9706 40.5216 54.8199 40.4094Z" fill="white"/>
</g>
<g opacity="0.2">
<path opacity="0.2" d="M56.1065 43.5379C55.7682 43.588 55.4049 43.567 55.0612 43.4749C53.8392 43.1475 53.0515 42.0049 53.126 40.7888C53.0489 40.9437 52.986 41.1079 52.9396 41.2808C52.5658 42.6761 53.395 44.1123 54.7902 44.4861C55.1339 44.5782 55.4972 44.5994 55.8355 44.5493C56.7565 44.4277 57.5649 43.7987 57.9154 42.8955C57.9496 42.8072 57.9712 42.7264 57.9956 42.6354C58.0453 42.4498 58.0705 42.2628 58.0794 42.0778C57.6924 42.8706 56.9557 43.4257 56.1065 43.5379Z" fill="black"/>
</g>
<path d="M65.9496 37.2145C65.5757 38.6099 64.1395 39.439 62.7442 39.0651C61.349 38.6912 60.5198 37.2551 60.8936 35.8598C61.2675 34.4645 62.7037 33.6353 64.099 34.0092C65.4943 34.3829 66.3235 35.8191 65.9496 37.2145Z" fill="#FFCE54"/>
<path d="M59.4229 25.169C59.125 26.2809 57.971 26.9475 56.8586 26.6494C55.7461 26.3513 55.0802 25.197 55.3781 24.0852C55.679 22.9623 56.8299 22.3065 57.9424 22.6046C58.3572 22.7157 58.7187 22.9427 58.983 23.2518C59.4212 23.7597 59.61 24.4708 59.4229 25.169Z" fill="#FFCE54"/>
<g opacity="0.5">
<path opacity="0.5" d="M62.7789 34.9719C63.1172 34.9218 63.4804 34.943 63.824 35.035C65.0461 35.3625 65.8337 36.5048 65.7593 37.7211C65.8363 37.566 65.8994 37.4019 65.9457 37.2291C66.3195 35.8339 65.4904 34.3977 64.0951 34.0238C63.7515 33.9317 63.3882 33.9107 63.0499 33.9608C62.1288 34.0824 61.3205 34.7114 60.9699 35.6146C60.9357 35.7028 60.914 35.7837 60.8897 35.8745C60.8399 36.0602 60.8147 36.2471 60.8058 36.4321C61.1929 35.6392 61.9297 35.084 62.7789 34.9719Z" fill="white"/>
</g>
<g opacity="0.2">
<path opacity="0.2" d="M64.0653 38.0999C63.7271 38.15 63.3638 38.129 63.0202 38.0369C61.7981 37.7094 61.0105 36.567 61.0849 35.3507C61.0079 35.5058 60.945 35.6699 60.8987 35.8427C60.5248 37.238 61.354 38.6741 62.7493 39.048C63.093 39.1401 63.4561 39.1612 63.7944 39.1111C64.7155 38.9897 65.5238 38.3605 65.8743 37.4575C65.9086 37.3692 65.9302 37.2884 65.9546 37.1974C66.0044 37.0117 66.0296 36.8249 66.0384 36.6398C65.6513 37.4326 64.9146 37.9877 64.0653 38.0999Z" fill="black"/>
</g>
<path d="M55.4028 36.9014C54.9861 36.9199 54.5656 36.8719 54.1508 36.7607C51.9161 36.1619 50.591 33.8668 51.1898 31.6321C51.7886 29.3974 54.0837 28.0723 56.3185 28.6711C58.5532 29.2699 59.8783 31.565 59.2795 33.7997C58.7918 35.6197 57.1893 36.8266 55.4028 36.9014Z" fill="#FFCE54"/>
<g opacity="0.5">
<path opacity="0.5" d="M56.0475 29.6823C58.1271 30.2396 59.3974 32.267 59.0843 34.3464C59.1587 34.1695 59.2284 33.9903 59.2795 33.7997C59.8783 31.565 58.5532 29.2699 56.3185 28.6711C54.0837 28.0723 51.7886 29.3974 51.1898 31.6321C51.1435 31.8049 51.1289 31.9778 51.1052 32.1513C51.8905 30.2259 53.9861 29.13 56.0475 29.6823Z" fill="white"/>
</g>
<g opacity="0.2">
<path opacity="0.2" d="M54.4201 35.75C52.3405 35.1927 51.0702 33.1653 51.3835 31.0858C51.3091 31.2627 51.2394 31.442 51.1883 31.6325C50.5895 33.8672 51.9146 36.1623 54.1493 36.7611C56.3841 37.3599 58.6792 36.0348 59.278 33.8001C59.3243 33.6273 59.3389 33.4544 59.3626 33.2808C58.5771 35.2063 56.4815 36.3023 54.4201 35.75Z" fill="black"/>
</g>
<path d="M53.2216 24.0485C52.6987 25.9999 50.6858 27.1625 48.734 26.6395C46.7823 26.1165 45.6203 24.1032 46.1432 22.1518C46.666 20.2006 48.6789 19.038 50.6307 19.5609C52.5825 20.0839 53.7444 22.0972 53.2216 24.0485Z" fill="#FFCE54"/>
<g opacity="0.5">
<path opacity="0.5" d="M50.3598 20.5722C52.1476 21.0512 53.2471 22.7642 53.0353 24.5405C53.1041 24.3801 53.1753 24.2213 53.2216 24.0485C53.7444 22.0972 52.5928 20.0867 50.6307 19.5609C48.6795 19.0381 46.666 20.2004 46.1432 22.1518C46.0969 22.3246 46.0796 22.4979 46.059 22.6712C46.7651 21.0273 48.5818 20.0958 50.3598 20.5722Z" fill="white"/>
</g>
<g opacity="0.2">
<path opacity="0.2" d="M49.0054 25.6282C47.2175 25.1492 46.118 23.4364 46.3299 21.6599C46.261 21.8203 46.1899 21.979 46.1435 22.1519C45.6206 24.1033 46.7722 26.1138 48.7344 26.6396C50.6856 27.1624 52.6991 26 53.2219 24.0486C53.2682 23.8758 53.2855 23.7025 53.3061 23.5292C52.6 25.1731 50.7833 26.1046 49.0054 25.6282Z" fill="black"/>
</g>
<g opacity="0.5">
<path opacity="0.5" d="M57.6734 23.6158C58.611 23.867 59.2234 24.7276 59.2173 25.6573C59.3029 25.5056 59.3775 25.3457 59.4249 25.169C59.7228 24.057 59.0568 22.9026 57.9443 22.6046C56.8319 22.3065 55.678 22.9732 55.38 24.0852C55.3327 24.2619 55.3173 24.4377 55.3157 24.6119C55.775 23.8036 56.7356 23.3645 57.6734 23.6158Z" fill="white"/>
</g>
<g opacity="0.2">
<path opacity="0.2" d="M57.1311 25.6385C56.1935 25.3872 55.581 24.5266 55.5873 23.597C55.5017 23.7487 55.4271 23.9086 55.3797 24.0855C55.0817 25.1974 55.7477 26.3516 56.8602 26.6497C57.9726 26.9478 59.1266 26.2811 59.4245 25.1693C59.4719 24.9925 59.4873 24.8166 59.4889 24.6424C59.0293 25.4506 58.0687 25.8897 57.1311 25.6385Z" fill="black"/>
</g>
<g opacity="0.5">
<path opacity="0.5" d="M48.4079 46.0602C49.3455 46.3114 49.9579 47.172 49.9517 48.1016C50.0373 47.95 50.1119 47.79 50.1593 47.6132C50.4572 46.5014 49.7911 45.347 48.6787 45.0489C47.5664 44.7509 46.4124 45.4176 46.1145 46.5294C46.0671 46.7061 46.0517 46.882 46.05 47.0562C46.5095 46.248 47.4702 45.8089 48.4079 46.0602Z" fill="white"/>
</g>
<g opacity="0.2">
<path opacity="0.2" d="M47.8655 48.0823C46.9279 47.8311 46.3154 46.9705 46.3217 46.0408C46.236 46.1925 46.1615 46.3525 46.1141 46.5292C45.8162 47.6411 46.4822 48.7955 47.5945 49.0935C48.707 49.3916 49.861 48.7249 50.1589 47.613C50.2063 47.4364 50.2217 47.2605 50.2233 47.0863C49.7638 47.8945 48.8031 48.3335 47.8655 48.0823Z" fill="black"/>
</g>
<path d="M28.1355 32.8241L35.5522 25.2742L37.2585 28.2832L31.2303 33.3136L28.1355 32.8241Z" fill="#8CC152"/>
<g opacity="0.5">
<path opacity="0.5" d="M35.2817 26.2856L36.2633 28.0177L36.8379 27.5408L35.5527 25.2744L28.1359 32.8244L28.7615 32.9231L35.2817 26.2856Z" fill="white"/>
</g>
<g opacity="0.2">
<path opacity="0.2" d="M32.3857 27.1974L27.1231 32.5538L28.2279 32.7281L32.848 27.9997L32.3857 27.1974Z" fill="black"/>
</g>
<path d="M31.2294 33.3137L39.5959 26.3581L41.1745 29.1455L33.6359 34.3576L31.2294 33.3137Z" fill="#A0D468"/>
<g opacity="0.5">
<path opacity="0.5" d="M39.3263 27.369L40.1755 28.8689L40.7809 28.45L39.5972 26.3579L31.2306 33.3135L31.8519 33.5826L39.3263 27.369Z" fill="white"/>
</g>
<g opacity="0.2">
<path opacity="0.2" d="M30.2191 33.0429L30.6222 33.2176L31.2304 33.3138L37.2586 28.2834L36.8374 27.5408L30.2191 33.0429Z" fill="black"/>
</g>
<path d="M33.6368 34.3576L43.6417 27.4419L44.4104 31.2717L36.1662 36.0525L33.6368 34.3576Z" fill="#8CC152"/>
<g opacity="0.5">
<path opacity="0.5" d="M43.3711 28.4532L43.8327 30.7552L44.2569 30.509L43.642 27.4421L33.6371 34.3578L34.2428 34.7636L43.3711 28.4532Z" fill="white"/>
</g>
<g opacity="0.2">
<path opacity="0.2" d="M40.78 28.4499L32.7741 33.9846L33.636 34.3584L41.1746 29.1462L40.78 28.4499Z" fill="black"/>
</g>
<path d="M38.4174 38.1592L36.1653 36.0528L47.4145 29.5371L47.6129 32.8418L38.4174 38.1592Z" fill="#A0D468"/>
<g opacity="0.5">
<path opacity="0.5" d="M47.1436 30.5484L47.2923 33.0268L47.6129 32.8418L47.4145 29.5371L36.1653 36.0528L36.7298 36.5809L47.1436 30.5484Z" fill="white"/>
</g>
<g opacity="0.2">
<path opacity="0.2" d="M44.2565 30.5093L35.4798 35.5929L36.1652 36.0528L44.4094 31.272L44.2565 30.5093Z" fill="black"/>
</g>
<g opacity="0.5">
<path opacity="0.5" d="M42.4307 23.8672C42.7991 23.9659 43.052 24.2581 43.1505 24.602C43.2808 24.475 43.3917 24.3258 43.4419 24.1382C43.5909 23.5822 43.2576 23.005 42.7016 22.856C42.1457 22.707 41.5685 23.0403 41.4196 23.5963C41.3693 23.7839 41.3906 23.9686 41.4401 24.1437C41.6972 23.8951 42.0624 23.7686 42.4307 23.8672Z" fill="white"/>
</g>
<g opacity="0.5">
<path opacity="0.5" d="M41.2217 20.2915C41.5901 20.3903 41.843 20.6824 41.9415 21.0263C42.0718 20.8994 42.1827 20.7501 42.2329 20.5625C42.3819 20.0065 42.0486 19.4293 41.4927 19.2803C40.9367 19.1313 40.3596 19.4647 40.2106 20.0206C40.1603 20.2082 40.1817 20.3928 40.231 20.568C40.4884 20.3193 40.8535 20.1929 41.2217 20.2915Z" fill="white"/>
</g>
<path d="M38.4595 18.4678C38.3105 19.0237 37.7333 19.357 37.1774 19.2081C36.6213 19.0591 36.2882 18.4819 36.4372 17.9259C36.5862 17.3698 37.1634 17.0366 37.7194 17.1856C38.2752 17.3346 38.6085 17.9117 38.4595 18.4678Z" fill="#A0D468"/>
<g opacity="0.5">
<path opacity="0.5" d="M37.4484 18.1969C37.8166 18.2955 38.0696 18.5877 38.1682 18.9316C38.2985 18.8047 38.4092 18.6555 38.4595 18.4678C38.6085 17.9117 38.2752 17.3346 37.7194 17.1856C37.1633 17.0366 36.5861 17.3699 36.4372 17.9259C36.3869 18.1135 36.4083 18.2981 36.4576 18.4733C36.7148 18.2247 37.0799 18.0981 37.4484 18.1969Z" fill="white"/>
</g>
<g opacity="0.5">
<path opacity="0.5" d="M33.132 18.1241C33.5002 18.2228 33.7532 18.5149 33.8516 18.8589C33.9821 18.7319 34.0928 18.5826 34.1431 18.395C34.2921 17.8391 33.9588 17.2618 33.403 17.1129C32.8469 16.9639 32.2697 17.2972 32.1208 17.8531C32.0705 18.0407 32.0919 18.2253 32.1412 18.4006C32.3984 18.1518 32.7636 18.0254 33.132 18.1241Z" fill="white"/>
</g>
<g opacity="0.5">
<path opacity="0.5" d="M33.0596 22.44C33.428 22.5387 33.6809 22.8307 33.7794 23.1748C33.9097 23.0478 34.0206 22.8985 34.0708 22.7109C34.2198 22.1549 33.8865 21.5777 33.3306 21.4287C32.7746 21.2798 32.1975 21.6131 32.0485 22.1691C31.9982 22.3567 32.0195 22.5412 32.069 22.7165C32.3261 22.4677 32.6912 22.3413 33.0596 22.44Z" fill="white"/>
</g>
<g opacity="0.5">
<path opacity="0.5" d="M29.2862 20.3453C29.6545 20.444 29.9075 20.7361 30.0058 21.08C30.1362 20.9531 30.2471 20.8038 30.2974 20.6162C30.4464 20.0603 30.113 19.483 29.5571 19.334C29.0013 19.1851 28.4239 19.5183 28.2749 20.0743C28.2247 20.2619 28.2461 20.4466 28.2955 20.6217C28.5525 20.3731 28.9177 20.2465 29.2862 20.3453Z" fill="white"/>
</g>
<g opacity="0.5">
<path opacity="0.5" d="M25.4405 22.565C25.8088 22.6637 26.0618 22.9559 26.1602 23.2998C26.2905 23.1728 26.4014 23.0235 26.4517 22.8359C26.6007 22.2799 26.2674 21.7027 25.7114 21.5537C25.1554 21.4048 24.5783 21.7381 24.4293 22.2941C24.3791 22.4817 24.4004 22.6662 24.4498 22.8415C24.7071 22.5929 25.0722 22.4663 25.4405 22.565Z" fill="white"/>
</g>
<g opacity="0.5">
<path opacity="0.5" d="M37.417 22.5235C37.7854 22.6222 38.0393 22.9146 38.1368 23.2583C38.2671 23.1313 38.378 22.982 38.4283 22.7944C38.5772 22.2385 38.2439 21.6612 37.688 21.5122C37.132 21.3633 36.5549 21.6966 36.4059 22.2526C36.3556 22.4402 36.3769 22.6248 36.4264 22.8C36.6825 22.5511 37.0487 22.4248 37.417 22.5235Z" fill="white"/>
</g>
<path d="M49.3781 54.4057C49.4127 54.2764 49.4976 54.1592 49.6233 54.0872C52.3726 52.5092 55.9038 53.4554 57.4956 56.1966C59.0745 58.947 58.1292 62.4786 55.3877 64.0715C55.1376 64.2172 54.8177 64.1314 54.6722 63.8819C54.5267 63.6311 54.6124 63.3112 54.8617 63.1665C57.1066 61.8628 57.8814 58.9714 56.5891 56.72C55.2869 54.4776 52.3955 53.7029 50.1441 54.9952C49.8935 55.1387 49.5735 55.053 49.4297 54.8016C49.3579 54.6765 49.3434 54.5351 49.3781 54.4057Z" fill="white"/>
<path d="M49.3795 54.4062C49.4141 54.2769 49.4981 54.1606 49.6234 54.0884C49.8738 53.9437 50.1937 54.0295 50.3384 54.28L55.5794 63.3579C55.7239 63.6082 55.6382 63.9282 55.3878 64.0727C55.1374 64.2173 54.8175 64.1317 54.6728 63.8811L49.4318 54.8033C49.3595 54.6781 49.3448 54.5356 49.3795 54.4062Z" fill="white"/>
<path d="M53.8083 57.9009C53.8429 57.7716 53.9269 57.6554 54.0522 57.5832L54.9625 57.0576C55.213 56.9129 55.5329 56.9986 55.6774 57.2491C55.8219 57.4996 55.7362 57.8196 55.4858 57.9641L54.5756 58.4897C54.3252 58.6343 54.0053 58.5486 53.8608 58.2981C53.7882 58.1728 53.7736 58.0302 53.8083 57.9009Z" fill="white"/>
<path d="M52.5413 56.923L52.8123 55.9119C52.8872 55.6323 53.1738 55.4669 53.4534 55.5418C53.7329 55.6167 53.8984 55.9033 53.8235 56.1829L53.5526 57.194C53.4777 57.4734 53.191 57.639 52.9115 57.5641C52.6319 57.4892 52.4665 57.2025 52.5413 56.923Z" fill="white"/>
<path d="M54.0219 59.4867C54.0967 59.2072 54.3835 59.0417 54.663 59.1165L55.6741 59.3875C55.9535 59.4623 56.1191 59.7491 56.0442 60.0286C55.9693 60.308 55.6825 60.4736 55.4031 60.3987L54.392 60.1278C54.1126 60.0529 53.947 59.7661 54.0219 59.4867Z" fill="white"/>
<path d="M42.4415 66.138C42.5163 65.8585 42.8031 65.6931 43.0825 65.768C43.6963 65.9324 44.3267 65.9732 44.9553 65.8886C46.8295 65.6287 48.36 64.2734 48.8522 62.4366C49.5245 59.9274 48.0303 57.3392 45.521 56.6669C45.2416 56.592 45.076 56.3054 45.1509 56.0258C45.2258 55.7464 45.5125 55.5809 45.792 55.6558C48.8586 56.4775 50.6849 59.6415 49.8633 62.7076C49.2621 64.9512 47.3912 66.607 45.0966 66.9267C44.3272 67.0295 43.5595 66.9795 42.8115 66.779C42.532 66.7042 42.3666 66.4174 42.4415 66.138Z" fill="white"/>
<path d="M42.4426 66.1382L45.1521 56.026C45.227 55.7466 45.5138 55.5811 45.7932 55.656C46.0726 55.7309 46.2383 56.0176 46.1634 56.297L43.4538 66.4091C43.379 66.6886 43.0922 66.8541 42.8127 66.7793C42.5332 66.7044 42.3677 66.4176 42.4426 66.1382Z" fill="white"/>
<path d="M45.8186 61.6237C45.8935 61.3443 46.1803 61.1788 46.4597 61.2537L47.4709 61.5247C47.7504 61.5996 47.916 61.8862 47.8411 62.1656C47.7662 62.4451 47.4796 62.6107 47.2 62.5358L46.1888 62.2648C45.9093 62.19 45.7438 61.9032 45.8186 61.6237Z" fill="white"/>
<path d="M45.6176 60.0314C45.6525 59.9009 45.7378 59.784 45.8647 59.7112L46.7723 59.1954C47.0237 59.0533 47.3432 59.141 47.486 59.3919C47.6288 59.6429 47.5414 59.9614 47.2892 60.1066L46.3816 60.6222C46.1302 60.7645 45.8109 60.6767 45.668 60.4257C45.5972 60.301 45.5832 60.1598 45.6176 60.0314Z" fill="white"/>
<path d="M44.8503 62.8928C44.8849 62.7636 44.9689 62.6474 45.0942 62.5752C45.3447 62.4305 45.6646 62.5162 45.8092 62.7667L46.3347 63.677C46.4792 63.9275 46.3935 64.2474 46.1431 64.3918C45.8926 64.5365 45.5727 64.4508 45.4282 64.2003L44.9026 63.29C44.8303 63.1649 44.8156 63.0222 44.8503 62.8928Z" fill="white"/>
<path d="M51.8728 51.3234C52.6944 48.2573 55.858 46.4302 58.9246 47.2519C61.9914 48.0737 63.8176 51.2378 62.9961 54.3039C62.9212 54.5833 62.6344 54.7489 62.355 54.674C62.0755 54.5991 61.91 54.3124 61.9848 54.0329C62.6572 51.5237 61.1629 48.9355 58.6537 48.2632C56.1444 47.5908 53.5563 49.0851 52.8839 51.5943C52.8091 51.8738 52.5223 52.0394 52.2428 51.9645C51.9635 51.8896 51.798 51.6028 51.8728 51.3234Z" fill="white"/>
<path d="M51.8741 51.3235C51.949 51.0441 52.2357 50.8785 52.5152 50.9534L62.6272 53.6629C62.9066 53.7377 63.0722 54.0245 62.9973 54.304C62.9225 54.5834 62.6357 54.749 62.3562 54.6741L52.2442 51.9646C51.9648 51.8897 51.7992 51.6029 51.8741 51.3235Z" fill="white"/>
<path d="M57.471 50.6564L57.742 49.6452C57.8169 49.3657 58.1036 49.2003 58.3831 49.2752C58.6625 49.35 58.8281 49.6367 58.7532 49.9161L58.4823 50.9274C58.4074 51.2068 58.1206 51.3724 57.8412 51.2975C57.5617 51.2226 57.3961 50.9359 57.471 50.6564Z" fill="white"/>
<path d="M55.3601 49.9612C55.395 49.8309 55.4803 49.7138 55.6072 49.641C55.8586 49.4987 56.1781 49.5865 56.3209 49.8375L56.8365 50.7451C56.9792 50.9971 56.8916 51.3156 56.6398 51.4598C56.3884 51.602 56.069 51.5143 55.9262 51.2633L55.4105 50.3555C55.3398 50.2308 55.3257 50.0895 55.3601 49.9612Z" fill="white"/>
<path d="M58.738 51.6353C58.7726 51.506 58.8568 51.3898 58.9819 51.3175L59.8922 50.7919C60.1426 50.6473 60.4625 50.733 60.607 50.9835C60.7517 51.234 60.6659 51.5539 60.4155 51.6983L59.5052 52.224C59.2547 52.3687 58.9347 52.2829 58.7902 52.0324C58.7182 51.9071 58.7033 51.7647 58.738 51.6353Z" fill="white"/>
<path d="M9.14183 32.8297C13.9226 14.9875 32.3285 4.36075 50.1708 9.14157C68.0134 13.9225 78.6397 32.3284 73.8589 50.1705C69.078 68.0128 50.6726 78.6395 32.8299 73.8586C14.9876 69.0778 4.361 50.6719 9.14183 32.8297ZM72.8476 49.8996C77.4792 32.6143 67.1847 14.7841 49.8999 10.1527C32.6145 5.5211 14.7845 15.8153 10.1529 33.1006C5.52135 50.3859 15.8155 68.2159 33.1008 72.8475C50.3856 77.4789 68.216 67.1849 72.8476 49.8996Z" fill="white"/>
<path d="M14.1986 34.1848C16.6313 25.1058 23.3974 17.8502 32.2972 14.7746C37.6423 12.9332 43.3537 12.7342 48.8167 14.198C53.3542 15.4138 57.5481 17.76 60.9455 20.9818C68.4762 28.135 71.487 38.8009 68.8035 48.8161C65.8558 59.8169 56.6624 67.9386 45.3821 69.5064C41.6362 70.0268 37.8692 69.79 34.1854 68.8029C19.1309 64.7691 10.1647 49.2393 14.1986 34.1848ZM67.7922 48.5452C70.3766 38.9002 67.4768 28.6293 60.2249 21.7414C56.9538 18.639 52.9155 16.38 48.5458 15.2091C43.2853 13.7996 37.7843 13.9915 32.6386 15.7636C24.0681 18.7253 17.5523 25.7133 15.2098 34.4557C11.3252 48.9532 19.9598 63.9075 34.4564 67.7918C38.004 68.7424 41.6314 68.9703 45.2379 68.4687C56.1009 66.9594 64.9536 59.1391 67.7922 48.5452Z" fill="white"/>
<path d="M19.3185 39.2429C20.0281 36.5944 21.495 34.5647 23.5596 33.3727C24.8582 32.623 26.3211 32.2424 27.9091 32.2414C28.4475 32.2385 28.9716 32.2816 29.4653 32.3705C30.3589 32.4914 31.318 32.7515 32.2943 33.1413C34.6039 34.0766 36.8537 35.6891 38.804 37.8046C39.921 39.0354 40.9134 40.3977 41.7563 41.8577C42.7692 43.6129 43.5418 45.4659 44.0516 47.3646C44.8696 50.4447 44.9381 53.4277 44.2513 55.9911C43.5427 58.6356 42.0746 60.664 40.0057 61.8581C38.5606 62.6933 36.9221 63.065 35.1343 62.965C30.2663 62.7231 25.0346 58.9589 21.8098 53.3733C19.1254 48.7242 18.1934 43.4418 19.3185 39.2429ZM43.24 55.7202C43.8796 53.3334 43.8108 50.5367 43.04 47.6344C42.5545 45.8246 41.8174 44.0564 40.8496 42.381C40.0438 40.9861 39.096 39.6842 38.031 38.5119C36.1866 36.5116 34.0672 34.9891 31.9038 34.1119C31.0085 33.7556 30.1328 33.5167 29.3024 33.4043C28.8487 33.324 28.3891 33.2856 27.9123 33.288C26.5083 33.2896 25.2199 33.6229 24.083 34.2792C22.2637 35.3297 20.9659 37.1389 20.3296 39.5138C19.2749 43.45 20.1679 48.4363 22.7161 52.85C25.7675 58.1351 30.6634 61.695 35.1894 61.9192C36.7732 62.008 38.2163 61.6823 39.4823 60.9515C41.3058 59.8993 42.605 58.0903 43.24 55.7202Z" fill="white"/>
<path d="M17.2171 38.6101C17.6014 37.1761 18.1994 35.861 19.0397 34.7631C20.4623 32.9058 23.1778 30.9641 28.0426 32.2581L27.7934 33.2752C24.3652 32.363 21.6318 33.0996 19.8704 35.3996C16.6859 39.5579 17.3684 47.4829 19.9735 51.9965C24.0819 59.1112 27.2462 62.2336 35.1389 61.93C35.4277 61.9185 35.6714 62.1435 35.682 62.4334C35.6917 62.7227 35.4675 62.9654 35.1793 62.976C26.7975 63.2987 23.3052 59.8609 19.0669 52.52C16.9208 48.8013 16.0082 43.122 17.2171 38.6101Z" fill="white"/>
<path d="M28.8785 54.8305C28.9131 54.7011 28.9971 54.585 29.1223 54.5127L38.1876 49.2789C38.4376 49.1341 38.7575 49.2198 38.9019 49.4703C39.0466 49.7207 38.9609 50.0406 38.7104 50.1852L29.6457 55.4192C29.3951 55.5637 29.0752 55.478 28.9307 55.2276C28.8585 55.1024 28.8438 54.9598 28.8785 54.8305Z" fill="white"/>
<path d="M26.2551 50.3009C26.2897 50.1716 26.3739 50.0555 26.499 49.9832L35.5641 44.7503C35.8144 44.6058 36.1344 44.6915 36.2789 44.9419C36.4236 45.1924 36.3378 45.5123 36.0873 45.6569L27.0224 50.8897C26.7719 51.0343 26.4519 50.9486 26.3074 50.6981C26.2352 50.573 26.2204 50.4303 26.2551 50.3009Z" fill="white"/>
<path d="M23.6457 45.7649C23.6804 45.6356 23.7645 45.5194 23.8896 45.4472L32.9546 40.2143C33.2051 40.0696 33.525 40.1554 33.6696 40.4059C33.8141 40.6564 33.7285 40.9763 33.478 41.1207L24.413 46.3536C24.1625 46.4983 23.8426 46.4126 23.6981 46.1621C23.6258 46.037 23.611 45.8943 23.6457 45.7649Z" fill="white"/>
<path d="M37.9116 38.0238C37.9462 37.8945 38.0303 37.7784 38.1556 37.706L47.3507 32.3884C47.601 32.2438 47.921 32.3296 48.0662 32.5801C48.2108 32.8306 48.1246 33.1504 47.8751 33.2952L38.679 38.6125C38.4285 38.757 38.1086 38.6713 37.9642 38.4209C37.8917 38.2958 37.8769 38.1532 37.9116 38.0238Z" fill="white"/>
<path d="M46.9105 29.4018C46.9672 29.1906 47.1539 29.029 47.3847 29.0146C47.6734 28.9977 47.9213 29.2176 47.9384 29.5059L48.1367 32.8104C48.154 33.0997 47.9343 33.3467 47.6458 33.3648C47.3571 33.3816 47.1093 33.1616 47.0921 32.8735L46.8938 29.569C46.8904 29.5109 46.8962 29.4552 46.9105 29.4018Z" fill="white"/>
<path d="M35.6606 35.9173C35.6953 35.7879 35.7781 35.6724 35.9032 35.6002L47.1539 29.0839C47.4044 28.9393 47.7243 29.025 47.8688 29.2755C48.0134 29.5259 47.9277 29.8458 47.6773 29.9904L36.4293 36.5053C36.1786 36.6508 35.8586 36.5651 35.7138 36.3158C35.6404 36.1902 35.6259 36.0467 35.6606 35.9173Z" fill="white"/>
<path d="M43.1358 27.3066C43.1856 27.1209 43.3362 26.9697 43.5377 26.9285C43.8215 26.8722 44.0985 27.0554 44.1546 27.3393L44.9235 31.1693C44.9793 31.4509 44.7979 31.7272 44.5133 31.7854C44.2298 31.8418 43.9535 31.6586 43.8969 31.3747L43.128 27.5447C43.1118 27.4631 43.1154 27.3826 43.1358 27.3066Z" fill="white"/>
<path d="M33.1301 34.2232C33.1611 34.1076 33.2319 34.0017 33.3381 33.9286L43.3433 27.0119C43.581 26.8479 43.9068 26.9078 44.0716 27.1456C44.2348 27.3842 44.1756 27.7079 43.9379 27.874L33.9342 34.789C33.6963 34.9538 33.3695 34.8938 33.2057 34.6561C33.1149 34.525 33.0918 34.3664 33.1301 34.2232Z" fill="white"/>
<path d="M30.7238 33.1787C30.751 33.0769 30.8079 32.9832 30.8948 32.9112L39.2615 25.9555C39.4833 25.7714 39.8129 25.8016 39.9988 26.0239C40.1823 26.2477 40.1513 26.577 39.9303 26.7612L31.5637 33.7169C31.342 33.901 31.0123 33.8708 30.8265 33.6486C30.7147 33.5127 30.6814 33.3367 30.7238 33.1787Z" fill="white"/>
<path d="M39.0901 26.2228C39.125 26.0924 39.2105 25.9746 39.3378 25.9028C39.5886 25.7604 39.909 25.8484 40.0511 26.1003L41.6295 28.8876C41.7716 29.1395 41.6838 29.4589 41.4319 29.601C41.18 29.7431 40.8607 29.6554 40.7187 29.4035L39.1403 26.6162C39.07 26.4914 39.0557 26.3512 39.0901 26.2228Z" fill="white"/>
<path d="M27.7232 32.5927C27.7459 32.5078 27.7905 32.4286 27.855 32.3613L35.1656 24.9151C35.1989 24.8818 35.2363 24.8526 35.2775 24.8288C35.398 24.7584 35.548 24.7361 35.683 24.7734C35.8179 24.8106 35.938 24.8957 36.0071 25.0168L37.7126 28.0256C37.8546 28.2775 37.7678 28.5971 37.5151 28.7388C37.2642 28.8812 36.9447 28.7935 36.8017 28.5415L35.4371 26.1331L28.6026 33.095C28.4001 33.3012 28.0691 33.3046 27.862 33.102C27.7229 32.9652 27.6761 32.7685 27.7232 32.5927Z" fill="white"/>
<path d="M24.3319 32.2329C24.3526 32.1558 24.3913 32.0825 24.4485 32.0195L30.8469 24.8529C30.9585 24.7283 31.124 24.6636 31.2909 24.6808C31.4587 24.6982 31.6065 24.7949 31.6902 24.9403L33.303 27.738C33.4467 27.9881 33.362 28.3083 33.1114 28.4529C32.8601 28.5974 32.5401 28.5116 32.3956 28.2611L31.145 26.0908L25.2288 32.7176C25.0357 32.9326 24.7049 32.9509 24.4897 32.7589C24.3376 32.6227 24.2824 32.4175 24.3319 32.2329Z" fill="white"/>
<path d="M50.6837 31.4971C51.3561 28.9879 53.9442 27.4936 56.4535 28.166C58.9627 28.8383 60.457 31.4265 59.7846 33.9357C59.2486 35.9363 57.4965 37.3381 55.4241 37.4252C54.9583 37.4455 54.484 37.3924 54.0149 37.2667C51.5056 36.5945 50.0114 34.0064 50.6837 31.4971ZM58.7734 33.6647C59.2963 31.7134 58.1338 29.7 56.1824 29.1772C54.2311 28.6543 52.2177 29.8167 51.6948 31.7681C51.172 33.7193 52.3345 35.7327 54.2857 36.2556C54.6512 36.3535 55.019 36.395 55.3788 36.3791C56.9932 36.3111 58.3564 35.2211 58.7734 33.6647Z" fill="white"/>
<path d="M45.6084 46.3931C45.9037 45.2912 46.9036 44.4943 48.0396 44.4557C48.2809 44.442 48.5458 44.4705 48.8138 44.5424C50.2077 44.9159 51.038 46.3534 50.6644 47.7477C50.2908 49.1421 48.853 49.9718 47.4591 49.5983C46.0652 49.2249 45.2348 47.7875 45.6084 46.3931ZM49.6532 47.4769C49.8772 46.6406 49.3791 45.7778 48.5427 45.5537C48.3827 45.5108 48.2297 45.4932 48.0878 45.5018C47.3951 45.5256 46.7965 46.0036 46.6195 46.6641C46.3954 47.5006 46.8935 48.3633 47.7299 48.5874C48.5664 48.8116 49.429 48.3133 49.6532 47.4769Z" fill="white"/>
<path d="M54.874 23.9496C55.2476 22.5552 56.6855 21.7255 58.0793 22.099C58.5953 22.2372 59.0457 22.5177 59.382 22.9116C59.9498 23.5696 60.155 24.465 59.9301 25.3043C59.5565 26.6986 58.1186 27.5284 56.7247 27.1549C55.3308 26.7813 54.5004 25.3438 54.874 23.9496ZM58.9188 25.0334C59.054 24.5288 58.9304 23.9907 58.5882 23.5932C58.3882 23.3597 58.119 23.1933 57.8084 23.1101C56.972 22.886 56.1093 23.3841 55.8852 24.2205C55.6611 25.0569 56.1591 25.9197 56.9955 26.1438C57.8321 26.3678 58.6947 25.8697 58.9188 25.0334Z" fill="white"/>
<path d="M44.4791 38.4723C45.0019 36.5209 47.0154 35.3584 48.9666 35.8813C50.9179 36.4041 52.0804 38.4175 51.5575 40.3689C51.535 40.4528 51.5142 40.5203 51.475 40.6019C51.0818 41.8714 49.9121 42.8639 48.5231 43.057C48.0384 43.1219 47.5509 43.0885 47.07 42.9597C45.1187 42.437 43.9562 40.4235 44.4791 38.4723ZM50.5463 40.098C50.9199 38.7036 50.0896 37.2661 48.6957 36.8926C47.3018 36.5191 45.8639 37.3488 45.4903 38.7432C45.1167 40.1375 45.947 41.5751 47.3409 41.9486C47.688 42.0416 48.0383 42.0656 48.3818 42.02C49.3691 41.8823 50.2037 41.1735 50.5046 40.2159L50.5463 40.098Z" fill="white"/>
<path d="M60.3895 35.7233C60.8377 34.0505 62.5631 33.0543 64.2359 33.5026C65.9088 33.9508 66.9049 35.6762 66.4567 37.349C66.0084 39.022 64.2831 40.018 62.6102 39.5698C60.9374 39.1215 59.9413 37.3962 60.3895 35.7233ZM65.4456 37.0781C65.7443 35.9633 65.0805 34.8127 63.965 34.5138C62.8496 34.215 61.6995 34.8794 61.4007 35.9943C61.102 37.1091 61.7658 38.2598 62.8812 38.5587C63.9967 38.8574 65.1468 38.1929 65.4456 37.0781Z" fill="white"/>
<path d="M52.4247 41.1755C52.454 41.0659 52.4812 40.9684 52.5225 40.8619C52.9398 39.7862 53.8974 39.0267 55.0221 38.8783C55.4251 38.8181 55.8598 38.8445 56.2711 38.9547C57.9439 39.403 58.9401 41.1283 58.4918 42.8012C58.0436 44.474 56.3182 45.4701 54.6454 45.0219C52.9726 44.5737 51.9764 42.8483 52.4247 41.1755ZM57.4806 42.5302C57.7793 41.4154 57.1155 40.2648 56.0001 39.966C55.7261 39.8926 55.4383 39.8748 55.167 39.9152C54.4132 40.0149 53.7773 40.5219 53.4986 41.2399C53.472 41.309 53.4569 41.3696 53.4358 41.4464C53.1371 42.5612 53.8009 43.7119 54.9162 44.0108C56.0315 44.3096 57.1819 43.645 57.4806 42.5302Z" fill="white"/>
<path d="M45.6371 22.0159C46.2348 19.7851 48.5355 18.4573 50.7657 19.0549C52.9959 19.6524 54.3245 21.9527 53.7267 24.1835C53.129 26.4143 50.8283 27.7421 48.5981 27.1445C46.3679 26.5469 45.0393 24.2467 45.6371 22.0159ZM52.7155 23.9125C53.1637 22.2397 52.1676 20.5143 50.4948 20.0661C48.8219 19.6179 47.0965 20.6141 46.6483 22.2868C46.2001 23.9597 47.1962 25.685 48.8691 26.1333C50.5419 26.5815 52.2673 25.5854 52.7155 23.9125Z" fill="white"/>
<path d="M23.9232 22.1591C24.1474 21.3227 25.01 20.8245 25.8464 21.0486C26.6828 21.2728 27.181 22.1354 26.9568 22.9719C26.7327 23.8084 25.87 24.3063 25.0336 24.0822C24.1972 23.8581 23.6991 22.9955 23.9232 22.1591ZM25.9456 22.701C26.0202 22.4224 25.854 22.1345 25.5755 22.0599C25.297 21.9853 25.009 22.1515 24.9344 22.43C24.8598 22.7084 25.0261 22.9965 25.3045 23.0711C25.5831 23.1458 25.871 22.9794 25.9456 22.701Z" fill="white"/>
<path d="M27.7691 19.9388C27.9932 19.1024 28.8558 18.6043 29.6923 18.8285C30.5285 19.0525 31.0267 19.9152 30.8026 20.7516C30.5785 21.588 29.7157 22.0861 28.8794 21.862C28.043 21.6378 27.545 20.7752 27.7691 19.9388ZM29.7916 20.4807C29.8662 20.2023 29.6999 19.9142 29.4215 19.8396C29.143 19.765 28.855 19.9313 28.7804 20.2097C28.7058 20.4882 28.8721 20.7762 29.1505 20.8508C29.4289 20.9254 29.717 20.7591 29.7916 20.4807Z" fill="white"/>
<path d="M31.6166 17.718C31.7484 17.2262 32.1311 16.8134 32.6156 16.6405C32.9104 16.5353 33.2297 16.5246 33.5399 16.6078C34.3762 16.8318 34.8743 17.6946 34.6502 18.531C34.5184 19.0227 34.1357 19.4356 33.6513 19.6086C33.3564 19.7137 33.0371 19.7245 32.727 19.6415C31.8907 19.4171 31.3926 18.5543 31.6166 17.718ZM33.6391 18.26C33.7138 17.9814 33.5474 17.6935 33.269 17.6189C33.1622 17.5903 33.0621 17.5931 32.9672 17.6269C32.8045 17.685 32.6713 17.8271 32.6279 17.989C32.5533 18.2674 32.7195 18.5555 32.998 18.6301C33.1047 18.6587 33.2048 18.6558 33.2997 18.6221C33.4624 18.5639 33.5958 18.4218 33.6391 18.26Z" fill="white"/>
<path d="M35.9311 17.7895C36.1552 16.953 37.0179 16.4549 37.8544 16.679C38.6908 16.9032 39.1888 17.7658 38.9647 18.6023C38.7405 19.4387 37.8779 19.9368 37.0415 19.7126C36.2051 19.4885 35.7069 18.6259 35.9311 17.7895ZM37.9537 18.3314C38.0283 18.0529 37.862 17.7649 37.5835 17.6903C37.3051 17.6157 37.0171 17.7819 36.9424 18.0605C36.8678 18.3389 37.0341 18.627 37.3126 18.7016C37.591 18.7762 37.8791 18.6098 37.9537 18.3314Z" fill="white"/>
<path d="M35.9 22.1175C36.1241 21.2811 36.9868 20.7831 37.8231 21.0072C38.6595 21.2313 39.1576 22.0939 38.9334 22.9303C38.7093 23.7667 37.8467 24.2649 37.0103 24.0408C36.174 23.8165 35.6759 22.9539 35.9 22.1175ZM37.9223 22.6594C37.9983 22.376 37.8355 22.0942 37.5522 22.0183C37.2727 21.9434 36.9858 22.11 36.9112 22.3885C36.8366 22.6669 37.0018 22.9546 37.2812 23.0295C37.5646 23.1054 37.8464 22.9427 37.9223 22.6594Z" fill="white"/>
<path d="M40.9155 23.4612C41.1396 22.6248 42.0023 22.1268 42.8386 22.3509C43.675 22.575 44.1732 23.4376 43.9491 24.2741C43.7249 25.1105 42.8622 25.6086 42.0258 25.3845C41.1895 25.1603 40.6913 24.2976 40.9155 23.4612ZM42.9379 24.0031C43.0126 23.7247 42.8462 23.4366 42.5678 23.362C42.2894 23.2874 42.0014 23.4538 41.9268 23.7322C41.8522 24.0106 42.0184 24.2987 42.2968 24.3733C42.5753 24.4479 42.8633 24.2816 42.9379 24.0031Z" fill="white"/>
<path d="M41.8002 16.1116C42.0244 15.2752 42.8871 14.7772 43.7235 15.0013C44.5599 15.2254 45.0579 16.088 44.8338 16.9244C44.6097 17.7609 43.7471 18.259 42.9107 18.0349C42.0742 17.8108 41.5761 16.9481 41.8002 16.1116ZM43.8227 16.6535C43.8973 16.3751 43.731 16.087 43.4526 16.0124C43.174 15.9378 42.8861 16.1041 42.8115 16.3826C42.7369 16.661 42.9031 16.949 43.1816 17.0237C43.46 17.0984 43.7481 16.9321 43.8227 16.6535Z" fill="white"/>
<path d="M39.7064 19.8847C39.9306 19.0483 40.7932 18.5501 41.6296 18.7742C42.466 18.9983 42.9642 19.8611 42.74 20.6975C42.5159 21.5339 41.6532 22.0321 40.8167 21.8079C39.9803 21.5838 39.4824 20.721 39.7064 19.8847ZM41.7288 20.4266C41.8034 20.148 41.6372 19.8601 41.3587 19.7855C41.0802 19.7109 40.7922 19.877 40.7176 20.1556C40.643 20.434 40.8093 20.7221 41.0877 20.7967C41.3663 20.8712 41.6542 20.705 41.7288 20.4266Z" fill="white"/>
<path d="M31.5425 22.0338C31.7068 21.4205 32.2171 20.9697 32.8439 20.8858C33.0579 20.8574 33.2663 20.8698 33.4657 20.9232C34.3021 21.1473 34.8001 22.01 34.576 22.8464C34.4691 23.2453 34.2214 23.5737 33.859 23.7963C33.4591 24.0131 33.0518 24.0637 32.6528 23.9568C31.8165 23.7328 31.3184 22.8701 31.5425 22.0338ZM33.5648 22.5756C33.6395 22.2971 33.4731 22.0092 33.1947 21.9345C33.1287 21.9169 33.0587 21.9129 32.982 21.923C32.7798 21.9503 32.6074 22.1042 32.5537 22.3047C32.4791 22.5831 32.6453 22.8712 32.9237 22.9458C33.063 22.9831 33.1979 22.9653 33.3357 22.8899C33.4436 22.8225 33.5275 22.7148 33.5648 22.5756Z" fill="white"/>
</g>
<defs>
<clipPath id="clip0">
<rect width="67" height="67" fill="white" transform="translate(82.5293 17.812) rotate(105)"/>
</clipPath>
</defs>
</svg>
